<svg width="211" height="184" viewBox="0 0 211 184" fill="none" xmlns="http://www.w3.org/2000/svg">
<path d="M104.871 123.31C105.09 121.667 105.2 119.968 105.2 118.16C105.2 116.407 105.09 114.653 104.816 113.01L115.939 104.353C116.925 103.585 117.199 102.106 116.597 101.01L106.077 82.8194C105.419 81.614 104.049 81.2305 102.844 81.614L89.7486 86.874C87.0091 84.7919 84.1051 83.0386 80.8724 81.7236L78.8999 67.8065C78.6807 66.4915 77.5849 65.5601 76.2699 65.5601H55.2299C53.9149 65.5601 52.8739 66.4915 52.6547 67.8065L50.6822 81.7236C47.4495 83.0386 44.4907 84.8467 41.806 86.874L28.7107 81.614C27.5053 81.1757 26.1355 81.614 25.478 82.8194L15.0128 101.01C14.3553 102.161 14.5745 103.585 15.6703 104.353L26.793 113.01C26.5191 114.653 26.2999 116.462 26.2999 118.16C26.2999 119.859 26.4095 121.667 26.6834 123.31L15.5607 131.968C14.5745 132.735 14.3005 134.214 14.9032 135.31L25.4232 153.501C26.0807 154.706 27.4505 155.09 28.656 154.706L41.7512 149.446C44.4907 151.528 47.3947 153.282 50.6274 154.597L52.5999 168.514C52.8739 169.829 53.9149 170.76 55.2299 170.76H76.2699C77.5849 170.76 78.6807 169.829 78.8451 168.514L80.8176 154.597C84.0503 153.282 87.0091 151.528 89.6939 149.446L102.789 154.706C103.994 155.144 105.364 154.706 106.022 153.501L116.542 135.31C117.199 134.104 116.925 132.735 115.884 131.968L104.871 123.31ZM65.7499 137.885C54.9012 137.885 46.0249 129.009 46.0249 118.16C46.0249 107.311 54.9012 98.4351 65.7499 98.4351C76.5987 98.4351 85.4749 107.311 85.4749 118.16C85.4749 129.009 76.5987 137.885 65.7499 137.885Z" fill="#747474"/>
<g clip-path="url(#clip0)">
<path d="M163.153 154.181C163.873 153.775 164.582 153.31 165.302 152.769C166 152.244 166.665 151.675 167.237 151.073L174.015 152.908C174.616 153.071 175.287 152.737 175.542 152.169L179.633 142.532C179.916 141.909 179.658 141.249 179.144 140.884L173.128 137.247C173.136 135.532 172.964 133.851 172.519 132.17L177.469 127.217C177.927 126.735 177.969 126.02 177.575 125.497L171.273 117.121C170.879 116.598 170.196 116.462 169.607 116.769L163.476 120.152C161.985 119.259 160.379 118.623 158.767 118.162L156.939 111.373C156.752 110.762 156.167 110.348 155.491 110.447L145.115 111.73C144.46 111.813 143.958 112.327 143.981 112.993L143.866 120.014C143.13 120.397 142.345 120.851 141.668 121.36C140.992 121.869 140.305 122.454 139.733 123.056L132.955 121.221C132.354 121.058 131.683 121.392 131.428 121.96L127.337 131.597C127.055 132.22 127.312 132.88 127.826 133.245L133.842 136.882C133.834 138.597 134.006 140.278 134.451 141.959L129.501 146.912C129.06 147.415 129.001 148.109 129.395 148.632L135.697 157.008C136.091 157.531 136.79 157.689 137.363 157.36L143.494 153.977C144.986 154.87 146.57 155.522 148.203 155.967L150.031 162.756C150.218 163.367 150.803 163.781 151.48 163.682L161.872 162.421C162.549 162.321 163.012 161.802 163.006 161.158L163.153 154.181ZM145.633 142.973C142.383 138.654 143.258 132.462 147.577 129.212C151.895 125.963 158.088 126.837 161.337 131.156C164.587 135.475 163.712 141.667 159.393 144.917C155.075 148.166 148.883 147.291 145.633 142.973Z" fill="#747474"/>
</g>
<g clip-path="url(#clip1)">
<path d="M171.274 78.582C171.931 77.5923 172.535 76.533 173.103 75.3687C173.653 74.2397 174.133 73.0763 174.473 71.9318L184.353 69.8495C185.229 69.6652 185.87 68.7987 185.826 67.9038L184.764 52.8871C184.719 51.9044 183.957 51.2274 183.06 51.0959L172.976 50.3713C171.866 48.1704 170.547 46.1296 168.878 44.2678L171.977 34.6869C172.249 33.7713 171.836 32.8275 170.989 32.4146L157.441 25.8084C156.594 25.3955 155.631 25.6685 155.077 26.4464L149.438 34.7887C146.943 34.6205 144.47 34.8558 142.105 35.3183L135.324 27.8196C134.685 27.1588 133.666 27.011 132.864 27.5808L120.413 36.0085C119.629 36.543 119.323 37.5291 119.787 38.3671L124.231 47.434C123.539 48.4064 122.83 49.5019 122.297 50.5957C121.763 51.6894 121.266 52.8881 120.927 54.0326L111.046 56.1149C110.17 56.2991 109.529 57.1657 109.573 58.0606L110.636 73.0773C110.681 74.0599 111.442 74.737 112.339 74.8685L122.423 75.5931C123.533 77.794 124.853 79.8348 126.522 81.6965L123.422 91.2775C123.186 92.2103 123.563 93.1369 124.41 93.5498L137.959 100.156C138.805 100.569 139.803 100.313 140.322 99.518L145.962 91.1757C148.456 91.3439 150.912 91.1439 153.295 90.6461L160.076 98.1448C160.714 98.8056 161.734 98.9534 162.536 98.3836L175.021 89.9731C175.823 89.4033 176.077 88.4353 175.647 87.6144L171.274 78.582ZM141.506 75.6837C134.521 72.2774 131.592 63.7748 134.998 56.7889C138.405 49.8031 146.907 46.8744 153.893 50.2807C160.879 53.687 163.808 62.1896 160.401 69.1755C156.995 76.1613 148.492 79.09 141.506 75.6837Z" fill="#747474"/>
</g>
<defs>
<clipPath id="clip0">
<rect width="65.5114" height="65.5114" fill="white" transform="translate(159.964 91.1963) rotate(53.0404)"/>
</clipPath>
<clipPath id="clip1">
<rect width="94.2066" height="94.2066" fill="white" transform="translate(126.006) rotate(25.9939)"/>
</clipPath>
</defs>
</svg>
