<svg width="163" height="163" viewBox="0 0 163 163" fill="none" xmlns="http://www.w3.org/2000/svg">
<path d="M129.042 40.7498H115.458C115.458 22.0048 100.245 6.7915 81.5 6.7915C62.755 6.7915 47.5417 22.0048 47.5417 40.7498H33.9583C26.4875 40.7498 20.4429 46.8623 20.4429 54.3332L20.375 135.833C20.375 143.304 26.4875 149.417 33.9583 149.417H129.042C136.512 149.417 142.625 143.304 142.625 135.833V54.3332C142.625 46.8623 136.512 40.7498 129.042 40.7498ZM81.5 20.3748C92.7742 20.3748 101.875 29.4757 101.875 40.7498H61.125C61.125 29.4757 70.2258 20.3748 81.5 20.3748ZM81.5 88.2915C62.755 88.2915 47.5417 73.0782 47.5417 54.3332H61.125C61.125 65.6073 70.2258 74.7082 81.5 74.7082C92.7742 74.7082 101.875 65.6073 101.875 54.3332H115.458C115.458 73.0782 100.245 88.2915 81.5 88.2915Z" fill="#CCC8C8"/>
</svg>
