<svg width="171" height="171" viewBox="0 0 171 171" fill="none" xmlns="http://www.w3.org/2000/svg">
<path d="M49.875 99.7501C38.0475 99.7501 28.5 109.298 28.5 121.125C28.5 130.459 20.235 135.375 14.25 135.375C20.805 144.068 31.9913 149.625 42.75 149.625C58.4963 149.625 71.25 136.871 71.25 121.125C71.25 109.298 61.7025 99.7501 49.875 99.7501ZM147.559 32.9889L138.011 23.4414C137.352 22.7808 136.569 22.2567 135.707 21.8991C134.845 21.5415 133.921 21.3574 132.988 21.3574C132.055 21.3574 131.131 21.5415 130.269 21.8991C129.407 22.2567 128.624 22.7808 127.965 23.4414L64.125 87.2814L83.7188 106.875L147.559 43.0351C150.337 40.2564 150.337 35.7676 147.559 32.9889Z" fill="#CCC8C8"/>
</svg>
