<svg width="324" height="273" viewBox="0 0 324 273" fill="none" xmlns="http://www.w3.org/2000/svg">
<path d="M6 119H316V233C316 249.569 302.569 263 286 263H36C19.4315 263 6 249.569 6 233V119Z" fill="white"/>
<g filter="url(#filter0_d)">
<path d="M6 215H316V233C316 249.569 302.569 263 286 263H36C19.4315 263 6 249.569 6 233V215Z" fill="#C4C4C4"/>
</g>
<rect x="6" width="310" height="263" rx="30" fill="url(#paint0_radial)" fill-opacity="0.3"/>
<rect x="6" width="310" height="263" rx="30" fill="url(#paint1_radial)" fill-opacity="0.3"/>
<rect x="6" y="211" width="310" height="4" fill="white"/>
<rect x="6" y="118" width="310" height="4" fill="white"/>
<path d="M92.9973 137.911V160H88.895V150.533H77.4719V160H73.3696V137.911H77.4719V147.031H88.895V137.911H92.9973ZM105.031 142.96C107.514 142.96 109.407 143.559 110.711 144.759C112.037 145.937 112.699 147.725 112.699 150.123V160H108.976V157.949C108.492 158.685 107.798 159.253 106.893 159.653C106.01 160.032 104.937 160.221 103.674 160.221C102.412 160.221 101.308 160.011 100.361 159.59C99.4145 159.148 98.6782 158.548 98.1522 157.791C97.6473 157.013 97.3949 156.14 97.3949 155.172C97.3949 153.657 97.9524 152.448 99.0673 151.543C100.203 150.617 101.981 150.155 104.4 150.155H108.755V149.902C108.755 148.724 108.397 147.819 107.682 147.188C106.988 146.557 105.947 146.242 104.558 146.242C103.611 146.242 102.675 146.389 101.75 146.683C100.845 146.978 100.077 147.388 99.446 147.914L97.8998 145.043C98.7833 144.369 99.8457 143.854 101.087 143.496C102.328 143.139 103.643 142.96 105.031 142.96ZM104.495 157.349C105.484 157.349 106.357 157.128 107.114 156.687C107.892 156.224 108.439 155.572 108.755 154.73V152.774H104.684C102.412 152.774 101.276 153.521 101.276 155.014C101.276 155.729 101.56 156.297 102.128 156.718C102.696 157.139 103.485 157.349 104.495 157.349ZM125.249 160.221C123.502 160.221 121.935 159.853 120.547 159.116C119.158 158.38 118.075 157.36 117.296 156.056C116.518 154.73 116.129 153.237 116.129 151.575C116.129 149.913 116.518 148.43 117.296 147.125C118.075 145.821 119.148 144.801 120.515 144.064C121.904 143.328 123.481 142.96 125.249 142.96C126.91 142.96 128.362 143.296 129.603 143.97C130.865 144.643 131.812 145.611 132.443 146.873L129.414 148.64C128.93 147.862 128.32 147.283 127.584 146.904C126.868 146.505 126.08 146.305 125.217 146.305C123.744 146.305 122.524 146.789 121.557 147.756C120.589 148.703 120.105 149.976 120.105 151.575C120.105 153.173 120.578 154.457 121.525 155.424C122.493 156.371 123.723 156.844 125.217 156.844C126.08 156.844 126.868 156.655 127.584 156.276C128.32 155.877 128.93 155.288 129.414 154.509L132.443 156.276C131.791 157.539 130.834 158.517 129.572 159.211C128.33 159.884 126.889 160.221 125.249 160.221ZM149.11 146.494H143.209V160H139.265V146.494H133.332V143.149H149.11V146.494ZM161.312 142.96C162.953 142.96 164.415 143.318 165.698 144.033C167.002 144.748 168.023 145.758 168.759 147.062C169.495 148.366 169.863 149.871 169.863 151.575C169.863 153.279 169.495 154.793 168.759 156.119C168.023 157.423 167.002 158.433 165.698 159.148C164.415 159.863 162.953 160.221 161.312 160.221C159.04 160.221 157.241 159.464 155.916 157.949V166.122H151.971V143.149H155.726V145.358C156.379 144.559 157.178 143.959 158.125 143.559C159.092 143.16 160.155 142.96 161.312 142.96ZM160.87 156.844C162.322 156.844 163.51 156.361 164.436 155.393C165.383 154.425 165.856 153.152 165.856 151.575C165.856 149.997 165.383 148.724 164.436 147.756C163.51 146.789 162.322 146.305 160.87 146.305C159.923 146.305 159.071 146.526 158.314 146.967C157.557 147.388 156.957 147.998 156.515 148.798C156.074 149.597 155.853 150.523 155.853 151.575C155.853 152.626 156.074 153.552 156.515 154.352C156.957 155.151 157.557 155.772 158.314 156.213C159.071 156.634 159.923 156.844 160.87 156.844ZM181.299 160.221C179.595 160.221 178.06 159.853 176.692 159.116C175.325 158.38 174.252 157.36 173.474 156.056C172.716 154.73 172.338 153.237 172.338 151.575C172.338 149.913 172.716 148.43 173.474 147.125C174.252 145.821 175.325 144.801 176.692 144.064C178.06 143.328 179.595 142.96 181.299 142.96C183.025 142.96 184.571 143.328 185.938 144.064C187.306 144.801 188.368 145.821 189.125 147.125C189.904 148.43 190.293 149.913 190.293 151.575C190.293 153.237 189.904 154.73 189.125 156.056C188.368 157.36 187.306 158.38 185.938 159.116C184.571 159.853 183.025 160.221 181.299 160.221ZM181.299 156.844C182.751 156.844 183.95 156.361 184.897 155.393C185.844 154.425 186.317 153.152 186.317 151.575C186.317 149.997 185.844 148.724 184.897 147.756C183.95 146.789 182.751 146.305 181.299 146.305C179.848 146.305 178.649 146.789 177.702 147.756C176.776 148.724 176.314 149.997 176.314 151.575C176.314 153.152 176.776 154.425 177.702 155.393C178.649 156.361 179.848 156.844 181.299 156.844ZM194.19 143.149H198.134V154.257L207.443 143.149H211.04V160H207.096V148.892L197.818 160H194.19V143.149ZM202.362 141.161C200.658 141.161 199.354 140.772 198.45 139.994C197.566 139.194 197.114 138.037 197.093 136.523H199.712C199.733 137.28 199.964 137.879 200.406 138.321C200.869 138.763 201.51 138.984 202.331 138.984C203.13 138.984 203.761 138.763 204.224 138.321C204.708 137.879 204.961 137.28 204.982 136.523H207.664C207.643 138.037 207.18 139.194 206.275 139.994C205.371 140.772 204.066 141.161 202.362 141.161ZM223.352 153.247H220.291V160H216.346V143.149H220.291V149.965H223.446L228.432 143.149H232.661L226.539 151.259L233.071 160H228.432L223.352 153.247ZM241.824 142.96C244.307 142.96 246.2 143.559 247.504 144.759C248.83 145.937 249.493 147.725 249.493 150.123V160H245.769V157.949C245.285 158.685 244.591 159.253 243.686 159.653C242.803 160.032 241.73 160.221 240.468 160.221C239.205 160.221 238.101 160.011 237.154 159.59C236.208 159.148 235.471 158.548 234.945 157.791C234.44 157.013 234.188 156.14 234.188 155.172C234.188 153.657 234.745 152.448 235.86 151.543C236.996 150.617 238.774 150.155 241.193 150.155H245.548V149.902C245.548 148.724 245.19 147.819 244.475 147.188C243.781 146.557 242.74 146.242 241.351 146.242C240.404 146.242 239.468 146.389 238.543 146.683C237.638 146.978 236.87 147.388 236.239 147.914L234.693 145.043C235.576 144.369 236.639 143.854 237.88 143.496C239.121 143.139 240.436 142.96 241.824 142.96ZM241.288 157.349C242.277 157.349 243.15 157.128 243.907 156.687C244.686 156.224 245.232 155.572 245.548 154.73V152.774H241.477C239.205 152.774 238.069 153.521 238.069 155.014C238.069 155.729 238.353 156.297 238.921 156.718C239.489 157.139 240.278 157.349 241.288 157.349ZM96.7365 180.96C98.3774 180.96 99.8395 181.318 101.123 182.033C102.427 182.748 103.447 183.758 104.184 185.062C104.92 186.366 105.288 187.871 105.288 189.575C105.288 191.279 104.92 192.793 104.184 194.119C103.447 195.423 102.427 196.433 101.123 197.148C99.8395 197.863 98.3774 198.221 96.7365 198.221C94.4645 198.221 92.6658 197.464 91.3405 195.949V204.122H87.396V181.149H91.1512V183.358C91.8033 182.559 92.6027 181.959 93.5494 181.559C94.5171 181.16 95.5795 180.96 96.7365 180.96ZM96.2948 194.844C97.7463 194.844 98.9349 194.361 99.8606 193.393C100.807 192.425 101.281 191.152 101.281 189.575C101.281 187.997 100.807 186.724 99.8606 185.756C98.9349 184.789 97.7463 184.305 96.2948 184.305C95.3481 184.305 94.4961 184.526 93.7387 184.967C92.9814 185.388 92.3818 185.998 91.9401 186.798C91.4983 187.597 91.2774 188.523 91.2774 189.575C91.2774 190.626 91.4983 191.552 91.9401 192.352C92.3818 193.151 92.9814 193.772 93.7387 194.213C94.4961 194.634 95.3481 194.844 96.2948 194.844ZM124.992 189.669C124.992 189.943 124.971 190.332 124.929 190.837H111.707C111.938 192.078 112.538 193.067 113.505 193.803C114.494 194.518 115.714 194.876 117.166 194.876C119.017 194.876 120.542 194.266 121.742 193.046L123.856 195.476C123.098 196.38 122.141 197.064 120.984 197.527C119.827 197.989 118.523 198.221 117.071 198.221C115.22 198.221 113.59 197.853 112.18 197.116C110.771 196.38 109.677 195.36 108.898 194.056C108.141 192.73 107.762 191.237 107.762 189.575C107.762 187.934 108.13 186.461 108.867 185.157C109.624 183.831 110.665 182.801 111.991 182.064C113.316 181.328 114.81 180.96 116.472 180.96C118.113 180.96 119.575 181.328 120.858 182.064C122.162 182.78 123.172 183.8 123.887 185.125C124.624 186.43 124.992 187.944 124.992 189.669ZM116.472 184.115C115.209 184.115 114.137 184.494 113.253 185.251C112.391 185.988 111.865 186.977 111.675 188.218H121.237C121.068 186.998 120.553 186.009 119.69 185.251C118.828 184.494 117.755 184.115 116.472 184.115ZM136.311 191.247H133.251V198H129.306V181.149H133.251V187.965H136.406L141.392 181.149H145.62L139.499 189.259L146.031 198H141.392L136.311 191.247ZM164.086 181.149V198H160.141V184.494H153.83L153.672 187.839C153.567 190.069 153.357 191.941 153.041 193.456C152.747 194.95 152.231 196.138 151.495 197.022C150.78 197.884 149.791 198.316 148.529 198.316C147.94 198.316 147.214 198.2 146.351 197.968L146.541 194.655C146.835 194.718 147.088 194.75 147.298 194.75C148.097 194.75 148.697 194.434 149.097 193.803C149.496 193.151 149.749 192.383 149.854 191.5C149.98 190.595 150.085 189.312 150.17 187.65L150.454 181.149H164.086ZM175.678 180.96C178.16 180.96 180.053 181.559 181.358 182.759C182.683 183.937 183.346 185.725 183.346 188.123V198H179.622V195.949C179.138 196.685 178.444 197.253 177.539 197.653C176.656 198.032 175.583 198.221 174.321 198.221C173.058 198.221 171.954 198.011 171.007 197.59C170.061 197.148 169.324 196.548 168.798 195.791C168.293 195.013 168.041 194.14 168.041 193.172C168.041 191.657 168.598 190.448 169.713 189.543C170.849 188.617 172.627 188.155 175.046 188.155H179.401V187.902C179.401 186.724 179.043 185.819 178.328 185.188C177.634 184.557 176.593 184.242 175.204 184.242C174.257 184.242 173.321 184.389 172.396 184.683C171.491 184.978 170.723 185.388 170.092 185.914L168.546 183.043C169.429 182.369 170.492 181.854 171.733 181.496C172.974 181.139 174.289 180.96 175.678 180.96ZM175.141 195.349C176.13 195.349 177.003 195.128 177.76 194.687C178.539 194.224 179.086 193.572 179.401 192.73V190.774H175.33C173.058 190.774 171.922 191.521 171.922 193.014C171.922 193.729 172.206 194.297 172.774 194.718C173.342 195.139 174.131 195.349 175.141 195.349ZM204.793 198V186.829L199.113 196.233H197.409L191.824 186.798V198H188.227V181.149H192.36L198.356 191.689L204.636 181.149H208.328L208.359 198H204.793ZM221.854 186.703C224 186.703 225.641 187.187 226.777 188.155C227.913 189.122 228.481 190.49 228.481 192.257C228.481 194.108 227.85 195.539 226.588 196.548C225.347 197.558 223.58 198.053 221.286 198.032L213.65 198V181.149H217.594V186.671L221.854 186.703ZM230.659 181.149H234.603V198H230.659V181.149ZM220.939 195.128C222.096 195.149 222.98 194.908 223.59 194.403C224.2 193.898 224.505 193.161 224.505 192.194C224.505 191.247 224.211 190.553 223.622 190.111C223.033 189.669 222.138 189.438 220.939 189.417L217.594 189.385V195.097L220.939 195.128Z" fill="white"/>
<path d="M78.3901 231.308L72.4438 242.359C71.9222 243.337 71.2963 244.074 70.5661 244.57C69.8489 245.052 69.0664 245.293 68.2188 245.293C67.5407 245.293 66.8692 245.15 66.2041 244.863L66.8301 242.868C67.3647 243.037 67.8081 243.122 68.1602 243.122C68.9817 243.122 69.6598 242.698 70.1944 241.851L70.4096 241.518L64.9523 231.308H67.6712L71.7201 239.347L75.8864 231.308H78.3901ZM85.5322 239.562C86.1842 239.745 86.6863 240.045 87.0384 240.462C87.4035 240.866 87.586 241.355 87.586 241.929C87.586 242.568 87.3709 243.135 86.9406 243.631C86.5102 244.113 85.9169 244.491 85.1606 244.765C84.4042 245.039 83.5436 245.176 82.5786 245.176C81.7701 245.176 80.9812 245.085 80.2118 244.902C79.4425 244.707 78.7448 244.433 78.1189 244.081L78.8231 242.262C79.3316 242.548 79.9054 242.77 80.5444 242.927C81.1833 243.083 81.8223 243.161 82.4613 243.161C83.2828 243.161 83.9218 243.037 84.3782 242.79C84.8476 242.529 85.0823 242.177 85.0823 241.733C85.0823 241.329 84.8998 241.016 84.5346 240.795C84.1826 240.573 83.6805 240.462 83.0285 240.462H80.9942V238.819H82.8329C83.4458 238.819 83.9218 238.715 84.2608 238.506C84.6129 238.297 84.7889 238.004 84.7889 237.626C84.7889 237.248 84.5803 236.948 84.163 236.726C83.7457 236.504 83.172 236.394 82.4417 236.394C81.3985 236.394 80.2966 236.648 79.136 237.156L78.5101 235.357C79.8793 234.718 81.2616 234.398 82.6569 234.398C83.5436 234.398 84.339 234.522 85.0432 234.77C85.7474 235.005 86.2951 235.344 86.6863 235.787C87.0905 236.217 87.2926 236.713 87.2926 237.274C87.2926 237.782 87.1362 238.239 86.8232 238.643C86.5102 239.034 86.0799 239.341 85.5322 239.562ZM90.1232 234.555H92.5682V238.799H97.8299V234.555H100.275V245H97.8299V240.873H92.5682V245H90.1232V234.555ZM107.444 234.437C108.983 234.437 110.157 234.809 110.965 235.552C111.787 236.283 112.197 237.391 112.197 238.878V245H109.889V243.729C109.589 244.185 109.159 244.537 108.598 244.785C108.051 245.02 107.386 245.137 106.603 245.137C105.821 245.137 105.136 245.007 104.549 244.746C103.963 244.472 103.506 244.1 103.18 243.631C102.867 243.148 102.711 242.607 102.711 242.007C102.711 241.068 103.056 240.319 103.747 239.758C104.452 239.184 105.553 238.897 107.053 238.897H109.752V238.741C109.752 238.01 109.531 237.45 109.087 237.059C108.657 236.667 108.011 236.472 107.151 236.472C106.564 236.472 105.984 236.563 105.41 236.746C104.849 236.928 104.373 237.182 103.982 237.508L103.024 235.728C103.571 235.311 104.23 234.992 104.999 234.77C105.769 234.548 106.584 234.437 107.444 234.437ZM107.112 243.357C107.725 243.357 108.266 243.22 108.735 242.946C109.218 242.659 109.557 242.255 109.752 241.733V240.521H107.229C105.821 240.521 105.117 240.984 105.117 241.909C105.117 242.353 105.293 242.705 105.645 242.966C105.997 243.227 106.486 243.357 107.112 243.357ZM123.497 236.628H119.839V245H117.394V236.628H113.717V234.555H123.497V236.628ZM130.513 237.997C131.843 237.997 132.86 238.297 133.564 238.897C134.281 239.497 134.64 240.345 134.64 241.44C134.64 242.588 134.249 243.474 133.466 244.1C132.684 244.726 131.582 245.033 130.161 245.02L125.27 245V234.555H127.715V237.978L130.513 237.997ZM129.945 243.22C130.663 243.233 131.21 243.083 131.588 242.77C131.967 242.457 132.156 242.001 132.156 241.401C132.156 240.814 131.973 240.384 131.608 240.11C131.243 239.836 130.689 239.693 129.945 239.68L127.715 239.66V243.2L129.945 243.22ZM152.209 234.555V245H149.784V236.628H144.64V245H142.195V234.555H152.209ZM160.164 245.137C159.108 245.137 158.156 244.909 157.308 244.452C156.46 243.996 155.795 243.363 155.313 242.555C154.843 241.733 154.609 240.808 154.609 239.777C154.609 238.747 154.843 237.828 155.313 237.019C155.795 236.211 156.46 235.579 157.308 235.122C158.156 234.666 159.108 234.437 160.164 234.437C161.233 234.437 162.192 234.666 163.039 235.122C163.887 235.579 164.545 236.211 165.015 237.019C165.497 237.828 165.739 238.747 165.739 239.777C165.739 240.808 165.497 241.733 165.015 242.555C164.545 243.363 163.887 243.996 163.039 244.452C162.192 244.909 161.233 245.137 160.164 245.137ZM160.164 243.044C161.064 243.044 161.807 242.744 162.394 242.144C162.981 241.544 163.274 240.755 163.274 239.777C163.274 238.799 162.981 238.01 162.394 237.411C161.807 236.811 161.064 236.511 160.164 236.511C159.264 236.511 158.521 236.811 157.934 237.411C157.36 238.01 157.073 238.799 157.073 239.777C157.073 240.755 157.36 241.544 157.934 242.144C158.521 242.744 159.264 243.044 160.164 243.044ZM179.189 242.927V247.328H176.9V245H168.841V247.328H166.572V242.927H167.061C167.726 242.901 168.176 242.477 168.411 241.655C168.659 240.821 168.822 239.647 168.9 238.134L169.037 234.555H177.643V242.927H179.189ZM171.13 238.31C171.078 239.51 170.98 240.488 170.836 241.244C170.693 242.001 170.432 242.561 170.054 242.927H175.198V236.628H171.188L171.13 238.31ZM187.162 234.437C188.179 234.437 189.086 234.659 189.881 235.103C190.69 235.546 191.322 236.172 191.778 236.98C192.235 237.789 192.463 238.721 192.463 239.777C192.463 240.834 192.235 241.773 191.778 242.594C191.322 243.403 190.69 244.029 189.881 244.472C189.086 244.915 188.179 245.137 187.162 245.137C185.754 245.137 184.639 244.667 183.817 243.729V248.795H181.372V234.555H183.7V235.924C184.104 235.429 184.6 235.057 185.187 234.809C185.786 234.561 186.445 234.437 187.162 234.437ZM186.888 243.044C187.788 243.044 188.525 242.744 189.099 242.144C189.685 241.544 189.979 240.755 189.979 239.777C189.979 238.799 189.685 238.01 189.099 237.411C188.525 236.811 187.788 236.511 186.888 236.511C186.302 236.511 185.773 236.648 185.304 236.922C184.834 237.182 184.463 237.561 184.189 238.056C183.915 238.552 183.778 239.125 183.778 239.777C183.778 240.429 183.915 241.003 184.189 241.499C184.463 241.994 184.834 242.379 185.304 242.653C185.773 242.914 186.302 243.044 186.888 243.044ZM199.552 245.137C198.495 245.137 197.544 244.909 196.696 244.452C195.848 243.996 195.183 243.363 194.701 242.555C194.231 241.733 193.997 240.808 193.997 239.777C193.997 238.747 194.231 237.828 194.701 237.019C195.183 236.211 195.848 235.579 196.696 235.122C197.544 234.666 198.495 234.437 199.552 234.437C200.621 234.437 201.579 234.666 202.427 235.122C203.275 235.579 203.933 236.211 204.403 237.019C204.885 237.828 205.126 238.747 205.126 239.777C205.126 240.808 204.885 241.733 204.403 242.555C203.933 243.363 203.275 243.996 202.427 244.452C201.579 244.909 200.621 245.137 199.552 245.137ZM199.552 243.044C200.451 243.044 201.195 242.744 201.782 242.144C202.368 241.544 202.662 240.755 202.662 239.777C202.662 238.799 202.368 238.01 201.782 237.411C201.195 236.811 200.451 236.511 199.552 236.511C198.652 236.511 197.909 236.811 197.322 237.411C196.748 238.01 196.461 238.799 196.461 239.777C196.461 240.755 196.748 241.544 197.322 242.144C197.909 242.744 198.652 243.044 199.552 243.044ZM213.195 235.063C214.186 235.063 215.059 235.279 215.816 235.709C216.572 236.126 217.159 236.713 217.576 237.469C218.006 238.226 218.222 239.093 218.222 240.071C218.222 241.075 217.987 241.968 217.517 242.751C217.048 243.52 216.389 244.12 215.542 244.55C214.694 244.98 213.729 245.196 212.647 245.196C210.834 245.196 209.433 244.596 208.442 243.396C207.45 242.196 206.955 240.469 206.955 238.213C206.955 236.113 207.405 234.451 208.305 233.225C209.204 231.999 210.58 231.19 212.432 230.799L217.283 229.763L217.635 231.953L213.234 232.853C211.969 233.114 211.023 233.557 210.398 234.183C209.772 234.809 209.406 235.689 209.302 236.824C209.772 236.263 210.339 235.833 211.004 235.533C211.669 235.22 212.399 235.063 213.195 235.063ZM212.706 243.22C213.605 243.22 214.329 242.933 214.877 242.359C215.438 241.773 215.718 241.029 215.718 240.13C215.718 239.23 215.438 238.506 214.877 237.958C214.329 237.411 213.605 237.137 212.706 237.137C211.793 237.137 211.056 237.411 210.495 237.958C209.935 238.506 209.654 239.23 209.654 240.13C209.654 241.042 209.935 241.786 210.495 242.359C211.069 242.933 211.806 243.22 212.706 243.22ZM220.588 234.555H223.033V238.799H228.295V234.555H230.74V245H228.295V240.873H223.033V245H220.588V234.555ZM243.797 239.836C243.797 240.006 243.784 240.247 243.758 240.56H235.562C235.705 241.329 236.077 241.942 236.677 242.398C237.29 242.842 238.046 243.064 238.946 243.064C240.093 243.064 241.039 242.685 241.782 241.929L243.093 243.435C242.623 243.996 242.03 244.42 241.313 244.707C240.596 244.993 239.787 245.137 238.887 245.137C237.74 245.137 236.729 244.909 235.855 244.452C234.982 243.996 234.304 243.363 233.821 242.555C233.352 241.733 233.117 240.808 233.117 239.777C233.117 238.76 233.345 237.847 233.802 237.039C234.271 236.217 234.917 235.579 235.738 235.122C236.56 234.666 237.485 234.437 238.516 234.437C239.533 234.437 240.439 234.666 241.235 235.122C242.043 235.565 242.669 236.198 243.112 237.019C243.569 237.828 243.797 238.767 243.797 239.836ZM238.516 236.394C237.733 236.394 237.068 236.628 236.52 237.098C235.986 237.554 235.66 238.167 235.542 238.936H241.469C241.365 238.18 241.045 237.567 240.511 237.098C239.976 236.628 239.311 236.394 238.516 236.394ZM256.251 239.836C256.251 240.006 256.238 240.247 256.212 240.56H248.016C248.16 241.329 248.531 241.942 249.131 242.398C249.744 242.842 250.501 243.064 251.4 243.064C252.548 243.064 253.493 242.685 254.237 241.929L255.547 243.435C255.078 243.996 254.484 244.42 253.767 244.707C253.05 244.993 252.241 245.137 251.342 245.137C250.194 245.137 249.183 244.909 248.31 244.452C247.436 243.996 246.758 243.363 246.276 242.555C245.806 241.733 245.571 240.808 245.571 239.777C245.571 238.76 245.8 237.847 246.256 237.039C246.725 236.217 247.371 235.579 248.192 235.122C249.014 234.666 249.94 234.437 250.97 234.437C251.987 234.437 252.893 234.666 253.689 235.122C254.497 235.565 255.123 236.198 255.567 237.019C256.023 237.828 256.251 238.767 256.251 239.836ZM250.97 236.394C250.188 236.394 249.523 236.628 248.975 237.098C248.44 237.554 248.114 238.167 247.997 238.936H253.924C253.819 238.18 253.5 237.567 252.965 237.098C252.43 236.628 251.765 236.394 250.97 236.394Z" fill="white"/>
<rect x="37" y="18" width="250" height="4" rx="2" fill="white"/>
<rect x="37" y="37" width="132" height="4" rx="2" fill="white"/>
<rect x="37" y="56" width="132" height="4" rx="2" fill="white"/>
<rect x="37" y="75" width="132" height="4" rx="2" fill="white"/>
<rect x="37" y="94" width="132" height="4" rx="2" fill="white"/>
<rect x="193.343" y="41" width="91.6575" height="55" rx="5.24561" stroke="white" stroke-width="4"/>
<path d="M230.294 75.8316H211.811L207.986 84.5264H202.868L218.618 49.7474H223.537L239.336 84.5264H234.12L230.294 75.8316ZM228.555 71.8569L221.053 54.8152L213.55 71.8569H228.555ZM244.525 49.7474H259.181C262.858 49.7474 266.121 50.4761 268.969 51.9335C271.818 53.3909 274.02 55.4445 275.577 58.0944C277.167 60.7111 277.962 63.7252 277.962 67.1369C277.962 70.5485 277.167 73.5793 275.577 76.2291C274.02 78.8458 271.818 80.8829 268.969 82.3403C266.121 83.7977 262.858 84.5264 259.181 84.5264H244.525V49.7474ZM258.883 80.2038C261.699 80.2038 264.166 79.6573 266.286 78.5643C268.439 77.4712 270.095 75.9476 271.255 73.9933C272.414 72.0059 272.994 69.7205 272.994 67.1369C272.994 64.5533 272.414 62.2844 271.255 60.3302C270.095 58.3428 268.439 56.8026 266.286 55.7095C264.166 54.6165 261.699 54.0699 258.883 54.0699H249.493V80.2038H258.883Z" fill="white"/>
<defs>
<filter id="filter0_d" x="0" y="211" width="324" height="62" filterUnits="userSpaceOnUse" color-interpolation-filters="sRGB">
<feFlood flood-opacity="0" result="BackgroundImageFix"/>
<feColorMatrix in="SourceAlpha" type="matrix" values="0 0 0 0 0 0 0 0 0 0 0 0 0 0 0 0 0 0 127 0"/>
<feOffset dx="1" dy="3"/>
<feGaussianBlur stdDeviation="3.5"/>
<feColorMatrix type="matrix" values="0 0 0 0 0 0 0 0 0 0 0 0 0 0 0 0 0 0 0.15 0"/>
<feBlend mode="normal" in2="BackgroundImageFix" result="effect1_dropShadow"/>
<feBlend mode="normal" in="SourceGraphic" in2="effect1_dropShadow" result="shape"/>
</filter>
<radialGradient id="paint0_radial" cx="0" cy="0" r="1" gradientUnits="userSpaceOnUse" gradientTransform="translate(73.5 41.2942) rotate(43.6601) scale(392.565 285.321)">
<stop/>
<stop offset="1" stop-color="#322828" stop-opacity="0"/>
</radialGradient>
<radialGradient id="paint1_radial" cx="0" cy="0" r="1" gradientUnits="userSpaceOnUse" gradientTransform="translate(73.5 41.2942) rotate(43.6601) scale(392.565 285.321)">
<stop/>
<stop offset="1" stop-color="#322828" stop-opacity="0"/>
</radialGradient>
</defs>
</svg>
