<svg width="324" height="273" viewBox="0 0 324 273" fill="none" xmlns="http://www.w3.org/2000/svg">
<path d="M6 122H316V233C316 249.569 302.569 263 286 263H36C19.4315 263 6 249.569 6 233V122Z" fill="white"/>
<g filter="url(#filter0_d)">
<path d="M6 216H316V233C316 249.569 302.569 263 286 263H36C19.4315 263 6 249.569 6 233V216Z" fill="#C4C4C4"/>
</g>
<rect x="6" width="310" height="263" rx="30" fill="url(#paint0_radial)" fill-opacity="0.3"/>
<rect x="6" width="310" height="263" rx="30" fill="url(#paint1_radial)" fill-opacity="0.3"/>
<path d="M78.3901 233.308L72.4438 244.359C71.9222 245.337 71.2963 246.074 70.5661 246.57C69.8489 247.052 69.0664 247.293 68.2188 247.293C67.5407 247.293 66.8692 247.15 66.2041 246.863L66.8301 244.868C67.3647 245.037 67.8081 245.122 68.1602 245.122C68.9817 245.122 69.6598 244.698 70.1944 243.851L70.4096 243.518L64.9523 233.308H67.6712L71.7201 241.347L75.8864 233.308H78.3901ZM85.5322 241.562C86.1842 241.745 86.6863 242.045 87.0384 242.462C87.4035 242.866 87.586 243.355 87.586 243.929C87.586 244.568 87.3709 245.135 86.9406 245.631C86.5102 246.113 85.9169 246.491 85.1606 246.765C84.4042 247.039 83.5436 247.176 82.5786 247.176C81.7701 247.176 80.9812 247.085 80.2118 246.902C79.4425 246.707 78.7448 246.433 78.1189 246.081L78.8231 244.262C79.3316 244.548 79.9054 244.77 80.5444 244.927C81.1833 245.083 81.8223 245.161 82.4613 245.161C83.2828 245.161 83.9218 245.037 84.3782 244.79C84.8476 244.529 85.0823 244.177 85.0823 243.733C85.0823 243.329 84.8998 243.016 84.5346 242.795C84.1826 242.573 83.6805 242.462 83.0285 242.462H80.9942V240.819H82.8329C83.4458 240.819 83.9218 240.715 84.2608 240.506C84.6129 240.297 84.7889 240.004 84.7889 239.626C84.7889 239.248 84.5803 238.948 84.163 238.726C83.7457 238.504 83.172 238.394 82.4417 238.394C81.3985 238.394 80.2966 238.648 79.136 239.156L78.5101 237.357C79.8793 236.718 81.2616 236.398 82.6569 236.398C83.5436 236.398 84.339 236.522 85.0432 236.77C85.7474 237.005 86.2951 237.344 86.6863 237.787C87.0905 238.217 87.2926 238.713 87.2926 239.274C87.2926 239.782 87.1362 240.239 86.8232 240.643C86.5102 241.034 86.0799 241.341 85.5322 241.562ZM90.1232 236.555H92.5682V240.799H97.8299V236.555H100.275V247H97.8299V242.873H92.5682V247H90.1232V236.555ZM107.444 236.437C108.983 236.437 110.157 236.809 110.965 237.552C111.787 238.283 112.197 239.391 112.197 240.878V247H109.889V245.729C109.589 246.185 109.159 246.537 108.598 246.785C108.051 247.02 107.386 247.137 106.603 247.137C105.821 247.137 105.136 247.007 104.549 246.746C103.963 246.472 103.506 246.1 103.18 245.631C102.867 245.148 102.711 244.607 102.711 244.007C102.711 243.068 103.056 242.319 103.747 241.758C104.452 241.184 105.553 240.897 107.053 240.897H109.752V240.741C109.752 240.01 109.531 239.45 109.087 239.059C108.657 238.667 108.011 238.472 107.151 238.472C106.564 238.472 105.984 238.563 105.41 238.746C104.849 238.928 104.373 239.182 103.982 239.508L103.024 237.728C103.571 237.311 104.23 236.992 104.999 236.77C105.769 236.548 106.584 236.437 107.444 236.437ZM107.112 245.357C107.725 245.357 108.266 245.22 108.735 244.946C109.218 244.659 109.557 244.255 109.752 243.733V242.521H107.229C105.821 242.521 105.117 242.984 105.117 243.909C105.117 244.353 105.293 244.705 105.645 244.966C105.997 245.227 106.486 245.357 107.112 245.357ZM123.497 238.628H119.839V247H117.394V238.628H113.717V236.555H123.497V238.628ZM130.513 239.997C131.843 239.997 132.86 240.297 133.564 240.897C134.281 241.497 134.64 242.345 134.64 243.44C134.64 244.588 134.249 245.474 133.466 246.1C132.684 246.726 131.582 247.033 130.161 247.02L125.27 247V236.555H127.715V239.978L130.513 239.997ZM129.945 245.22C130.663 245.233 131.21 245.083 131.588 244.77C131.967 244.457 132.156 244.001 132.156 243.401C132.156 242.814 131.973 242.384 131.608 242.11C131.243 241.836 130.689 241.693 129.945 241.68L127.715 241.66V245.2L129.945 245.22ZM152.209 236.555V247H149.784V238.628H144.64V247H142.195V236.555H152.209ZM160.164 247.137C159.108 247.137 158.156 246.909 157.308 246.452C156.46 245.996 155.795 245.363 155.313 244.555C154.843 243.733 154.609 242.808 154.609 241.777C154.609 240.747 154.843 239.828 155.313 239.019C155.795 238.211 156.46 237.579 157.308 237.122C158.156 236.666 159.108 236.437 160.164 236.437C161.233 236.437 162.192 236.666 163.039 237.122C163.887 237.579 164.545 238.211 165.015 239.019C165.497 239.828 165.739 240.747 165.739 241.777C165.739 242.808 165.497 243.733 165.015 244.555C164.545 245.363 163.887 245.996 163.039 246.452C162.192 246.909 161.233 247.137 160.164 247.137ZM160.164 245.044C161.064 245.044 161.807 244.744 162.394 244.144C162.981 243.544 163.274 242.755 163.274 241.777C163.274 240.799 162.981 240.01 162.394 239.411C161.807 238.811 161.064 238.511 160.164 238.511C159.264 238.511 158.521 238.811 157.934 239.411C157.36 240.01 157.073 240.799 157.073 241.777C157.073 242.755 157.36 243.544 157.934 244.144C158.521 244.744 159.264 245.044 160.164 245.044ZM179.189 244.927V249.328H176.9V247H168.841V249.328H166.572V244.927H167.061C167.726 244.901 168.176 244.477 168.411 243.655C168.659 242.821 168.822 241.647 168.9 240.134L169.037 236.555H177.643V244.927H179.189ZM171.13 240.31C171.078 241.51 170.98 242.488 170.836 243.244C170.693 244.001 170.432 244.561 170.054 244.927H175.198V238.628H171.188L171.13 240.31ZM187.162 236.437C188.179 236.437 189.086 236.659 189.881 237.103C190.69 237.546 191.322 238.172 191.778 238.98C192.235 239.789 192.463 240.721 192.463 241.777C192.463 242.834 192.235 243.773 191.778 244.594C191.322 245.403 190.69 246.029 189.881 246.472C189.086 246.915 188.179 247.137 187.162 247.137C185.754 247.137 184.639 246.667 183.817 245.729V250.795H181.372V236.555H183.7V237.924C184.104 237.429 184.6 237.057 185.187 236.809C185.786 236.561 186.445 236.437 187.162 236.437ZM186.888 245.044C187.788 245.044 188.525 244.744 189.099 244.144C189.685 243.544 189.979 242.755 189.979 241.777C189.979 240.799 189.685 240.01 189.099 239.411C188.525 238.811 187.788 238.511 186.888 238.511C186.302 238.511 185.773 238.648 185.304 238.922C184.834 239.182 184.463 239.561 184.189 240.056C183.915 240.552 183.778 241.125 183.778 241.777C183.778 242.429 183.915 243.003 184.189 243.499C184.463 243.994 184.834 244.379 185.304 244.653C185.773 244.914 186.302 245.044 186.888 245.044ZM199.552 247.137C198.495 247.137 197.544 246.909 196.696 246.452C195.848 245.996 195.183 245.363 194.701 244.555C194.231 243.733 193.997 242.808 193.997 241.777C193.997 240.747 194.231 239.828 194.701 239.019C195.183 238.211 195.848 237.579 196.696 237.122C197.544 236.666 198.495 236.437 199.552 236.437C200.621 236.437 201.579 236.666 202.427 237.122C203.275 237.579 203.933 238.211 204.403 239.019C204.885 239.828 205.126 240.747 205.126 241.777C205.126 242.808 204.885 243.733 204.403 244.555C203.933 245.363 203.275 245.996 202.427 246.452C201.579 246.909 200.621 247.137 199.552 247.137ZM199.552 245.044C200.451 245.044 201.195 244.744 201.782 244.144C202.368 243.544 202.662 242.755 202.662 241.777C202.662 240.799 202.368 240.01 201.782 239.411C201.195 238.811 200.451 238.511 199.552 238.511C198.652 238.511 197.909 238.811 197.322 239.411C196.748 240.01 196.461 240.799 196.461 241.777C196.461 242.755 196.748 243.544 197.322 244.144C197.909 244.744 198.652 245.044 199.552 245.044ZM213.195 237.063C214.186 237.063 215.059 237.279 215.816 237.709C216.572 238.126 217.159 238.713 217.576 239.469C218.006 240.226 218.222 241.093 218.222 242.071C218.222 243.075 217.987 243.968 217.517 244.751C217.048 245.52 216.389 246.12 215.542 246.55C214.694 246.98 213.729 247.196 212.647 247.196C210.834 247.196 209.433 246.596 208.442 245.396C207.45 244.196 206.955 242.469 206.955 240.213C206.955 238.113 207.405 236.451 208.305 235.225C209.204 233.999 210.58 233.19 212.432 232.799L217.283 231.763L217.635 233.953L213.234 234.853C211.969 235.114 211.023 235.557 210.398 236.183C209.772 236.809 209.406 237.689 209.302 238.824C209.772 238.263 210.339 237.833 211.004 237.533C211.669 237.22 212.399 237.063 213.195 237.063ZM212.706 245.22C213.605 245.22 214.329 244.933 214.877 244.359C215.438 243.773 215.718 243.029 215.718 242.13C215.718 241.23 215.438 240.506 214.877 239.958C214.329 239.411 213.605 239.137 212.706 239.137C211.793 239.137 211.056 239.411 210.495 239.958C209.935 240.506 209.654 241.23 209.654 242.13C209.654 243.042 209.935 243.786 210.495 244.359C211.069 244.933 211.806 245.22 212.706 245.22ZM220.588 236.555H223.033V240.799H228.295V236.555H230.74V247H228.295V242.873H223.033V247H220.588V236.555ZM243.797 241.836C243.797 242.006 243.784 242.247 243.758 242.56H235.562C235.705 243.329 236.077 243.942 236.677 244.398C237.29 244.842 238.046 245.064 238.946 245.064C240.093 245.064 241.039 244.685 241.782 243.929L243.093 245.435C242.623 245.996 242.03 246.42 241.313 246.707C240.596 246.993 239.787 247.137 238.887 247.137C237.74 247.137 236.729 246.909 235.855 246.452C234.982 245.996 234.304 245.363 233.821 244.555C233.352 243.733 233.117 242.808 233.117 241.777C233.117 240.76 233.345 239.847 233.802 239.039C234.271 238.217 234.917 237.579 235.738 237.122C236.56 236.666 237.485 236.437 238.516 236.437C239.533 236.437 240.439 236.666 241.235 237.122C242.043 237.565 242.669 238.198 243.112 239.019C243.569 239.828 243.797 240.767 243.797 241.836ZM238.516 238.394C237.733 238.394 237.068 238.628 236.52 239.098C235.986 239.554 235.66 240.167 235.542 240.936H241.469C241.365 240.18 241.045 239.567 240.511 239.098C239.976 238.628 239.311 238.394 238.516 238.394ZM256.251 241.836C256.251 242.006 256.238 242.247 256.212 242.56H248.016C248.16 243.329 248.531 243.942 249.131 244.398C249.744 244.842 250.501 245.064 251.4 245.064C252.548 245.064 253.493 244.685 254.237 243.929L255.547 245.435C255.078 245.996 254.484 246.42 253.767 246.707C253.05 246.993 252.241 247.137 251.342 247.137C250.194 247.137 249.183 246.909 248.31 246.452C247.436 245.996 246.758 245.363 246.276 244.555C245.806 243.733 245.571 242.808 245.571 241.777C245.571 240.76 245.8 239.847 246.256 239.039C246.725 238.217 247.371 237.579 248.192 237.122C249.014 236.666 249.94 236.437 250.97 236.437C251.987 236.437 252.893 236.666 253.689 237.122C254.497 237.565 255.123 238.198 255.567 239.019C256.023 239.828 256.251 240.767 256.251 241.836ZM250.97 238.394C250.188 238.394 249.523 238.628 248.975 239.098C248.44 239.554 248.114 240.167 247.997 240.936H253.924C253.819 240.18 253.5 239.567 252.965 239.098C252.43 238.628 251.765 238.394 250.97 238.394Z" fill="white"/>
<path d="M74.279 137.911C76.1934 137.911 77.8553 138.227 79.2648 138.858C80.6954 139.489 81.7893 140.393 82.5466 141.571C83.304 142.75 83.6826 144.148 83.6826 145.768C83.6826 147.367 83.304 148.766 82.5466 149.965C81.7893 151.143 80.6954 152.048 79.2648 152.679C77.8553 153.31 76.1934 153.626 74.279 153.626H69.2932V160H65.191V137.911H74.279ZM74.0897 150.155C75.8778 150.155 77.2347 149.776 78.1604 149.019C79.086 148.261 79.5488 147.178 79.5488 145.768C79.5488 144.359 79.086 143.275 78.1604 142.518C77.2347 141.761 75.8778 141.382 74.0897 141.382H69.2932V150.155H74.0897ZM93.2472 142.96C95.7296 142.96 97.623 143.559 98.9273 144.759C100.253 145.937 100.915 147.725 100.915 150.123V160H97.1917V157.949C96.7079 158.685 96.0136 159.253 95.109 159.653C94.2255 160.032 93.1526 160.221 91.8904 160.221C90.6281 160.221 89.5237 160.011 88.577 159.59C87.6303 159.148 86.894 158.548 86.3681 157.791C85.8632 157.013 85.6108 156.14 85.6108 155.172C85.6108 153.657 86.1682 152.448 87.2832 151.543C88.4192 150.617 90.1969 150.155 92.6161 150.155H96.9708V149.902C96.9708 148.724 96.6132 147.819 95.8979 147.188C95.2037 146.557 94.1624 146.242 92.7739 146.242C91.8272 146.242 90.8911 146.389 89.9654 146.683C89.0608 146.978 88.293 147.388 87.6619 147.914L86.1156 145.043C86.9992 144.369 88.0616 143.854 89.3028 143.496C90.544 143.139 91.8588 142.96 93.2472 142.96ZM92.7108 157.349C93.6995 157.349 94.5726 157.128 95.3299 156.687C96.1083 156.224 96.6553 155.572 96.9708 154.73V152.774H92.9001C90.6281 152.774 89.4921 153.521 89.4921 155.014C89.4921 155.729 89.7761 156.297 90.3441 156.718C90.9121 157.139 91.701 157.349 92.7108 157.349ZM115.647 151.227C116.699 151.522 117.509 152.006 118.077 152.679C118.666 153.331 118.96 154.12 118.96 155.046C118.96 156.077 118.613 156.992 117.919 157.791C117.225 158.569 116.268 159.18 115.047 159.621C113.827 160.063 112.439 160.284 110.882 160.284C109.578 160.284 108.305 160.137 107.064 159.842C105.823 159.527 104.697 159.085 103.687 158.517L104.823 155.582C105.644 156.045 106.569 156.403 107.6 156.655C108.631 156.908 109.662 157.034 110.693 157.034C112.018 157.034 113.049 156.834 113.785 156.434C114.542 156.013 114.921 155.445 114.921 154.73C114.921 154.078 114.627 153.573 114.038 153.216C113.47 152.858 112.66 152.679 111.608 152.679H108.326V150.028H111.292C112.281 150.028 113.049 149.86 113.596 149.523C114.164 149.187 114.448 148.714 114.448 148.103C114.448 147.493 114.111 147.01 113.438 146.652C112.765 146.294 111.839 146.115 110.661 146.115C108.978 146.115 107.2 146.526 105.328 147.346L104.318 144.443C106.527 143.412 108.757 142.897 111.008 142.897C112.439 142.897 113.722 143.097 114.858 143.496C115.994 143.875 116.878 144.422 117.509 145.137C118.161 145.831 118.487 146.631 118.487 147.535C118.487 148.356 118.234 149.092 117.73 149.744C117.225 150.375 116.53 150.87 115.647 151.227ZM132.394 142.96C134.035 142.96 135.497 143.318 136.78 144.033C138.084 144.748 139.105 145.758 139.841 147.062C140.577 148.366 140.946 149.871 140.946 151.575C140.946 153.279 140.577 154.793 139.841 156.119C139.105 157.423 138.084 158.433 136.78 159.148C135.497 159.863 134.035 160.221 132.394 160.221C130.122 160.221 128.323 159.464 126.998 157.949V166.122H123.053V143.149H126.809V145.358C127.461 144.559 128.26 143.959 129.207 143.559C130.174 143.16 131.237 142.96 132.394 142.96ZM131.952 156.844C133.404 156.844 134.592 156.361 135.518 155.393C136.465 154.425 136.938 153.152 136.938 151.575C136.938 149.997 136.465 148.724 135.518 147.756C134.592 146.789 133.404 146.305 131.952 146.305C131.005 146.305 130.153 146.526 129.396 146.967C128.639 147.388 128.039 147.998 127.597 148.798C127.156 149.597 126.935 150.523 126.935 151.575C126.935 152.626 127.156 153.552 127.597 154.352C128.039 155.151 128.639 155.772 129.396 156.213C130.153 156.634 131.005 156.844 131.952 156.844ZM150.935 142.96C153.418 142.96 155.311 143.559 156.615 144.759C157.941 145.937 158.603 147.725 158.603 150.123V160H154.88V157.949C154.396 158.685 153.702 159.253 152.797 159.653C151.913 160.032 150.84 160.221 149.578 160.221C148.316 160.221 147.212 160.011 146.265 159.59C145.318 159.148 144.582 158.548 144.056 157.791C143.551 157.013 143.299 156.14 143.299 155.172C143.299 153.657 143.856 152.448 144.971 151.543C146.107 150.617 147.885 150.155 150.304 150.155H154.659V149.902C154.659 148.724 154.301 147.819 153.586 147.188C152.892 146.557 151.85 146.242 150.462 146.242C149.515 146.242 148.579 146.389 147.653 146.683C146.749 146.978 145.981 147.388 145.35 147.914L143.804 145.043C144.687 144.369 145.749 143.854 146.991 143.496C148.232 143.139 149.547 142.96 150.935 142.96ZM150.399 157.349C151.387 157.349 152.26 157.128 153.018 156.687C153.796 156.224 154.343 155.572 154.659 154.73V152.774H150.588C148.316 152.774 147.18 153.521 147.18 155.014C147.18 155.729 147.464 156.297 148.032 156.718C148.6 157.139 149.389 157.349 150.399 157.349ZM172.604 143.97C174.203 143.97 175.612 144.317 176.832 145.011C178.053 145.684 178.999 146.631 179.672 147.851C180.367 149.071 180.714 150.47 180.714 152.048C180.714 153.668 180.335 155.109 179.578 156.371C178.82 157.612 177.758 158.58 176.391 159.274C175.023 159.968 173.466 160.316 171.72 160.316C168.796 160.316 166.535 159.348 164.936 157.412C163.337 155.477 162.538 152.69 162.538 149.05C162.538 145.663 163.263 142.981 164.715 141.003C166.166 139.026 168.386 137.722 171.373 137.091L179.199 135.418L179.767 138.952L172.667 140.404C170.626 140.825 169.101 141.54 168.091 142.55C167.082 143.559 166.493 144.979 166.324 146.81C167.082 145.905 167.997 145.211 169.07 144.727C170.143 144.222 171.321 143.97 172.604 143.97ZM171.815 157.128C173.267 157.128 174.434 156.666 175.318 155.74C176.222 154.793 176.675 153.594 176.675 152.143C176.675 150.691 176.222 149.523 175.318 148.64C174.434 147.756 173.267 147.315 171.815 147.315C170.342 147.315 169.154 147.756 168.249 148.64C167.345 149.523 166.892 150.691 166.892 152.143C166.892 153.615 167.345 154.814 168.249 155.74C169.175 156.666 170.363 157.128 171.815 157.128ZM192.042 160.221C190.338 160.221 188.802 159.853 187.435 159.116C186.067 158.38 184.995 157.36 184.216 156.056C183.459 154.73 183.08 153.237 183.08 151.575C183.08 149.913 183.459 148.43 184.216 147.125C184.995 145.821 186.067 144.801 187.435 144.064C188.802 143.328 190.338 142.96 192.042 142.96C193.767 142.96 195.313 143.328 196.681 144.064C198.048 144.801 199.11 145.821 199.868 147.125C200.646 148.43 201.035 149.913 201.035 151.575C201.035 153.237 200.646 154.73 199.868 156.056C199.11 157.36 198.048 158.38 196.681 159.116C195.313 159.853 193.767 160.221 192.042 160.221ZM192.042 156.844C193.494 156.844 194.693 156.361 195.639 155.393C196.586 154.425 197.059 153.152 197.059 151.575C197.059 149.997 196.586 148.724 195.639 147.756C194.693 146.789 193.494 146.305 192.042 146.305C190.59 146.305 189.391 146.789 188.445 147.756C187.519 148.724 187.056 149.997 187.056 151.575C187.056 153.152 187.519 154.425 188.445 155.393C189.391 156.361 190.59 156.844 192.042 156.844ZM217.664 146.494H211.763V160H207.818V146.494H201.886V143.149H217.664V146.494ZM227.53 153.247H224.469V160H220.525V143.149H224.469V149.965H227.625L232.611 143.149H236.839L230.718 151.259L237.25 160H232.611L227.53 153.247ZM246.003 142.96C248.485 142.96 250.379 143.559 251.683 144.759C253.008 145.937 253.671 147.725 253.671 150.123V160H249.948V157.949C249.464 158.685 248.769 159.253 247.865 159.653C246.981 160.032 245.908 160.221 244.646 160.221C243.384 160.221 242.28 160.011 241.333 159.59C240.386 159.148 239.65 158.548 239.124 157.791C238.619 157.013 238.367 156.14 238.367 155.172C238.367 153.657 238.924 152.448 240.039 151.543C241.175 150.617 242.953 150.155 245.372 150.155H249.727V149.902C249.727 148.724 249.369 147.819 248.654 147.188C247.96 146.557 246.918 146.242 245.53 146.242C244.583 146.242 243.647 146.389 242.721 146.683C241.817 146.978 241.049 147.388 240.418 147.914L238.871 145.043C239.755 144.369 240.817 143.854 242.059 143.496C243.3 143.139 244.615 142.96 246.003 142.96ZM245.467 157.349C246.455 157.349 247.328 157.128 248.086 156.687C248.864 156.224 249.411 155.572 249.727 154.73V152.774H245.656C243.384 152.774 242.248 153.521 242.248 155.014C242.248 155.729 242.532 156.297 243.1 156.718C243.668 157.139 244.457 157.349 245.467 157.349ZM134.117 198.316C131.887 198.316 129.867 197.832 128.058 196.864C126.27 195.875 124.861 194.518 123.83 192.793C122.82 191.068 122.315 189.122 122.315 186.955C122.315 184.789 122.83 182.843 123.861 181.118C124.892 179.393 126.302 178.046 128.09 177.079C129.899 176.09 131.919 175.595 134.148 175.595C135.958 175.595 137.609 175.911 139.103 176.542C140.596 177.173 141.859 178.088 142.889 179.287L140.239 181.78C138.64 180.055 136.673 179.193 134.338 179.193C132.823 179.193 131.466 179.529 130.267 180.203C129.068 180.855 128.132 181.77 127.459 182.948C126.785 184.126 126.449 185.462 126.449 186.955C126.449 188.449 126.785 189.785 127.459 190.963C128.132 192.141 129.068 193.067 130.267 193.74C131.466 194.392 132.823 194.718 134.338 194.718C136.673 194.718 138.64 193.845 140.239 192.099L142.889 194.624C141.859 195.823 140.586 196.738 139.071 197.369C137.578 198 135.926 198.316 134.117 198.316ZM161.273 198L156.76 191.531C156.571 191.552 156.287 191.563 155.908 191.563H150.922V198H146.82V175.911H155.908C157.823 175.911 159.484 176.227 160.894 176.858C162.324 177.489 163.418 178.393 164.176 179.571C164.933 180.75 165.312 182.148 165.312 183.768C165.312 185.43 164.902 186.861 164.081 188.06C163.282 189.259 162.125 190.153 160.61 190.742L165.69 198H161.273ZM161.178 183.768C161.178 182.359 160.715 181.275 159.79 180.518C158.864 179.761 157.507 179.382 155.719 179.382H150.922V188.186H155.719C157.507 188.186 158.864 187.807 159.79 187.05C160.715 186.272 161.178 185.178 161.178 183.768ZM190.192 198L190.16 183.358L182.902 195.476H181.072L173.814 183.547V198H169.901V175.911H173.278L182.05 190.553L190.665 175.911H194.042L194.073 198H190.192Z" fill="white"/>
<rect x="6" y="212" width="310" height="4" fill="white"/>
<rect x="6" y="118" width="310" height="4" fill="white"/>
<rect x="22" y="18" width="31" height="4" rx="2" fill="white"/>
<rect x="65" y="122" width="122" height="4" transform="rotate(-90 65 122)" fill="white"/>
<rect x="87" y="18" width="34" height="4" rx="2" fill="white"/>
<rect x="131" y="18" width="35" height="4" rx="2" fill="white"/>
<rect x="175" y="18" width="35" height="4" rx="2" fill="white"/>
<rect x="219" y="18" width="35" height="4" rx="2" fill="white"/>
<rect x="264" y="18" width="34" height="4" rx="2" fill="white"/>
<rect x="22" y="35" width="35" height="4" rx="2" fill="white"/>
<rect x="22" y="52" width="35" height="4" rx="2" fill="white"/>
<rect x="22" y="69" width="35" height="4" rx="2" fill="white"/>
<rect x="22" y="86" width="22" height="4" rx="2" fill="white"/>
<rect x="22" y="103" width="31" height="4" rx="2" fill="white"/>
<path d="M151.872 93.44C148.022 93.44 144.539 92.5967 141.422 90.91C138.342 89.1867 135.922 86.84 134.162 83.87C132.402 80.8633 131.522 77.49 131.522 73.75C131.522 70.01 132.402 66.655 134.162 63.685C135.922 60.6783 138.36 58.3317 141.477 56.645C144.594 54.9217 148.077 54.06 151.927 54.06C154.934 54.06 157.684 54.5733 160.177 55.6C162.67 56.59 164.797 58.075 166.557 60.055L162.982 63.52C160.085 60.4767 156.474 58.955 152.147 58.955C149.287 58.955 146.702 59.5967 144.392 60.88C142.082 62.1633 140.267 63.9417 138.947 66.215C137.664 68.4517 137.022 70.9633 137.022 73.75C137.022 76.5367 137.664 79.0667 138.947 81.34C140.267 83.5767 142.082 85.3367 144.392 86.62C146.702 87.9033 149.287 88.545 152.147 88.545C156.437 88.545 160.049 87.005 162.982 83.925L166.557 87.39C164.797 89.37 162.652 90.8733 160.122 91.9C157.629 92.9267 154.879 93.44 151.872 93.44ZM200.143 93L191.838 81.175C190.811 81.2483 190.005 81.285 189.418 81.285H179.903V93H174.403V54.5H189.418C194.405 54.5 198.328 55.6917 201.188 58.075C204.048 60.4583 205.478 63.74 205.478 67.92C205.478 70.89 204.745 73.42 203.278 75.51C201.811 77.6 199.721 79.1217 197.008 80.075L206.138 93H200.143ZM189.253 76.61C192.736 76.61 195.395 75.8583 197.228 74.355C199.061 72.8517 199.978 70.7067 199.978 67.92C199.978 65.1333 199.061 63.0067 197.228 61.54C195.395 60.0367 192.736 59.285 189.253 59.285H179.903V76.61H189.253ZM250.059 93L250.004 64.95L236.089 88.325H233.559L219.644 65.115V93H214.364V54.5H218.874L234.934 81.56L250.774 54.5H255.284L255.339 93H250.059Z" fill="white"/>
<defs>
<filter id="filter0_d" x="0" y="212" width="324" height="61" filterUnits="userSpaceOnUse" color-interpolation-filters="sRGB">
<feFlood flood-opacity="0" result="BackgroundImageFix"/>
<feColorMatrix in="SourceAlpha" type="matrix" values="0 0 0 0 0 0 0 0 0 0 0 0 0 0 0 0 0 0 127 0"/>
<feOffset dx="1" dy="3"/>
<feGaussianBlur stdDeviation="3.5"/>
<feColorMatrix type="matrix" values="0 0 0 0 0 0 0 0 0 0 0 0 0 0 0 0 0 0 0.15 0"/>
<feBlend mode="normal" in2="BackgroundImageFix" result="effect1_dropShadow"/>
<feBlend mode="normal" in="SourceGraphic" in2="effect1_dropShadow" result="shape"/>
</filter>
<radialGradient id="paint0_radial" cx="0" cy="0" r="1" gradientUnits="userSpaceOnUse" gradientTransform="translate(73.5 41.2942) rotate(43.6601) scale(392.565 285.321)">
<stop/>
<stop offset="1" stop-color="#322828" stop-opacity="0"/>
</radialGradient>
<radialGradient id="paint1_radial" cx="0" cy="0" r="1" gradientUnits="userSpaceOnUse" gradientTransform="translate(73.5 41.2942) rotate(43.6601) scale(392.565 285.321)">
<stop/>
<stop offset="1" stop-color="#322828" stop-opacity="0"/>
</radialGradient>
</defs>
</svg>
