<svg width="90" height="90" viewBox="0 0 90 90" fill="none" xmlns="http://www.w3.org/2000/svg">
<path d="M29.2499 7.50049H60.7499C72.7499 7.50049 82.4999 17.2505 82.4999 29.2505V60.7505C82.4999 66.519 80.2084 72.0512 76.1295 76.1301C72.0505 80.209 66.5183 82.5005 60.7499 82.5005H29.2499C17.2499 82.5005 7.49988 72.7505 7.49988 60.7505V29.2505C7.49988 23.482 9.79139 17.9498 13.8703 13.8709C17.9492 9.792 23.4814 7.50049 29.2499 7.50049ZM28.4999 15.0005C24.9195 15.0005 21.4857 16.4228 18.9539 18.9545C16.4222 21.4863 14.9999 24.9201 14.9999 28.5005V61.5005C14.9999 68.963 21.0374 75.0005 28.4999 75.0005H61.4999C65.0803 75.0005 68.5141 73.5782 71.0458 71.0464C73.5776 68.5147 74.9999 65.0809 74.9999 61.5005V28.5005C74.9999 21.038 68.9624 15.0005 61.4999 15.0005H28.4999ZM64.6874 20.6255C65.9306 20.6255 67.1229 21.1194 68.002 21.9984C68.881 22.8775 69.3749 24.0698 69.3749 25.313C69.3749 26.5562 68.881 27.7485 68.002 28.6276C67.1229 29.5066 65.9306 30.0005 64.6874 30.0005C63.4442 30.0005 62.2519 29.5066 61.3728 28.6276C60.4937 27.7485 59.9999 26.5562 59.9999 25.313C59.9999 24.0698 60.4937 22.8775 61.3728 21.9984C62.2519 21.1194 63.4442 20.6255 64.6874 20.6255ZM44.9999 26.2505C49.9727 26.2505 54.7418 28.2259 58.2581 31.7422C61.7744 35.2585 63.7499 40.0277 63.7499 45.0005C63.7499 49.9733 61.7744 54.7424 58.2581 58.2587C54.7418 61.7751 49.9727 63.7505 44.9999 63.7505C40.0271 63.7505 35.2579 61.7751 31.7416 58.2587C28.2253 54.7424 26.2499 49.9733 26.2499 45.0005C26.2499 40.0277 28.2253 35.2585 31.7416 31.7422C35.2579 28.2259 40.0271 26.2505 44.9999 26.2505ZM44.9999 33.7505C42.0162 33.7505 39.1547 34.9358 37.0449 37.0455C34.9351 39.1553 33.7499 42.0168 33.7499 45.0005C33.7499 47.9842 34.9351 50.8457 37.0449 52.9554C39.1547 55.0652 42.0162 56.2505 44.9999 56.2505C47.9836 56.2505 50.8451 55.0652 52.9548 52.9554C55.0646 50.8457 56.2499 47.9842 56.2499 45.0005C56.2499 42.0168 55.0646 39.1553 52.9548 37.0455C50.8451 34.9358 47.9836 33.7505 44.9999 33.7505Z" fill="black"/>
</svg>
