<svg width="266" height="57" viewBox="0 0 266 57" fill="none" xmlns="http://www.w3.org/2000/svg">
<rect x="1.70147" y="1.13428" width="263.164" height="54.4478" rx="27.2239" stroke="url(#paint0_radial)" stroke-width="2.26866"/>
<circle cx="28.3582" cy="28.3582" r="27.2239" stroke="#C4C4C4" stroke-width="2.26866"/>
<path d="M43.7652 30.0574L20.7609 42.886C19.5355 43.5694 18.0299 42.67 18.0508 41.2671L18.443 14.9305C18.4639 13.5276 19.9956 12.6734 21.2001 13.3929L43.8122 26.9009C45.0167 27.6204 44.9906 29.374 43.7652 30.0574Z" stroke="white" stroke-width="2.26866"/>
<path d="M86.905 28.7226C87.8715 28.954 88.5997 29.3692 89.0898 29.9681C89.5934 30.5534 89.8452 31.3089 89.8452 32.2345C89.8452 33.4732 89.3892 34.4328 88.4772 35.1134C87.5788 35.794 86.2653 36.1343 84.5366 36.1343H78.0028V21.8418H84.1486C85.714 21.8418 86.9323 22.1616 87.8034 22.8014C88.6882 23.4275 89.1306 24.3327 89.1306 25.517C89.1306 26.2929 88.9332 26.953 88.5385 27.4975C88.1573 28.042 87.6129 28.4504 86.905 28.7226ZM80.0242 28.1305H84.0057C84.9994 28.1305 85.7548 27.9331 86.2721 27.5384C86.803 27.1436 87.0684 26.5651 87.0684 25.8028C87.0684 25.0406 86.803 24.4621 86.2721 24.0673C85.7412 23.6589 84.9858 23.4548 84.0057 23.4548H80.0242V28.1305ZM84.4957 34.5213C86.6873 34.5213 87.783 33.7046 87.783 32.0711C87.783 31.2544 87.504 30.6555 86.9459 30.2744C86.4014 29.8796 85.5847 29.6822 84.4957 29.6822H80.0242V34.5213H84.4957ZM97.5646 36.2568C96.4893 36.2568 95.5228 36.0186 94.6653 35.5422C93.8077 35.0658 93.1339 34.4124 92.6439 33.5821C92.1675 32.7381 91.9293 31.7853 91.9293 30.7235C91.9293 29.6618 92.1675 28.7158 92.6439 27.8855C93.1339 27.0415 93.8077 26.3881 94.6653 25.9253C95.5228 25.4489 96.4893 25.2107 97.5646 25.2107C98.64 25.2107 99.5996 25.4489 100.444 25.9253C101.301 26.3881 101.968 27.0415 102.445 27.8855C102.935 28.7158 103.18 29.6618 103.18 30.7235C103.18 31.7853 102.935 32.7381 102.445 33.5821C101.968 34.4124 101.301 35.0658 100.444 35.5422C99.5996 36.0186 98.64 36.2568 97.5646 36.2568ZM97.5646 34.5417C98.2588 34.5417 98.8782 34.3852 99.4227 34.0721C99.9808 33.7454 100.416 33.2962 100.729 32.7245C101.042 32.1392 101.199 31.4722 101.199 30.7235C101.199 29.9749 101.042 29.3147 100.729 28.743C100.416 28.1577 99.9808 27.7085 99.4227 27.3954C98.8782 27.0824 98.2588 26.9258 97.5646 26.9258C96.8704 26.9258 96.2443 27.0824 95.6862 27.3954C95.1417 27.7085 94.7061 28.1577 94.3794 28.743C94.0664 29.3147 93.9098 29.9749 93.9098 30.7235C93.9098 31.4722 94.0664 32.1392 94.3794 32.7245C94.7061 33.2962 95.1417 33.7454 95.6862 34.0721C96.2443 34.3852 96.8704 34.5417 97.5646 34.5417ZM110.727 36.2568C109.624 36.2568 108.637 36.0186 107.766 35.5422C106.908 35.0658 106.235 34.4124 105.745 33.5821C105.255 32.7381 105.01 31.7853 105.01 30.7235C105.01 29.6618 105.255 28.7158 105.745 27.8855C106.235 27.0415 106.908 26.3881 107.766 25.9253C108.637 25.4489 109.624 25.2107 110.727 25.2107C111.707 25.2107 112.578 25.4081 113.34 25.8028C114.116 26.1976 114.715 26.7693 115.137 27.5179L113.646 28.4776C113.306 27.9603 112.884 27.5724 112.38 27.3138C111.877 27.0551 111.319 26.9258 110.706 26.9258C109.998 26.9258 109.359 27.0824 108.787 27.3954C108.229 27.7085 107.786 28.1577 107.46 28.743C107.147 29.3147 106.99 29.9749 106.99 30.7235C106.99 31.4858 107.147 32.1596 107.46 32.7449C107.786 33.3166 108.229 33.759 108.787 34.0721C109.359 34.3852 109.998 34.5417 110.706 34.5417C111.319 34.5417 111.877 34.4124 112.38 34.1538C112.884 33.8951 113.306 33.5072 113.646 32.9899L115.137 33.9292C114.715 34.6778 114.116 35.2563 113.34 35.6647C112.578 36.0594 111.707 36.2568 110.727 36.2568ZM127.7 25.3128V36.1343H125.74V27.0279H119.635V36.1343H117.675V25.3128H127.7ZM137.23 25.2107C138.278 25.2107 139.217 25.4421 140.048 25.9049C140.878 26.3677 141.525 27.0143 141.987 27.8446C142.464 28.6749 142.702 29.6346 142.702 30.7235C142.702 31.8125 142.464 32.7789 141.987 33.6229C141.525 34.4532 140.878 35.0998 140.048 35.5626C139.217 36.0254 138.278 36.2568 137.23 36.2568C136.454 36.2568 135.739 36.1071 135.086 35.8076C134.446 35.5081 133.902 35.0726 133.453 34.5009V40.0954H131.493V25.3128H133.371V27.0279C133.807 26.429 134.358 25.9798 135.025 25.6803C135.692 25.3672 136.427 25.2107 137.23 25.2107ZM137.067 34.5417C137.761 34.5417 138.38 34.3852 138.925 34.0721C139.483 33.7454 139.918 33.2962 140.231 32.7245C140.558 32.1392 140.721 31.4722 140.721 30.7235C140.721 29.9749 140.558 29.3147 140.231 28.743C139.918 28.1577 139.483 27.7085 138.925 27.3954C138.38 27.0824 137.761 26.9258 137.067 26.9258C136.386 26.9258 135.767 27.0892 135.209 27.4158C134.664 27.7289 134.229 28.1713 133.902 28.743C133.589 29.3147 133.432 29.9749 133.432 30.7235C133.432 31.4722 133.589 32.1392 133.902 32.7245C134.215 33.2962 134.65 33.7454 135.209 34.0721C135.767 34.3852 136.386 34.5417 137.067 34.5417ZM150.185 36.2568C149.109 36.2568 148.143 36.0186 147.285 35.5422C146.428 35.0658 145.754 34.4124 145.264 33.5821C144.787 32.7381 144.549 31.7853 144.549 30.7235C144.549 29.6618 144.787 28.7158 145.264 27.8855C145.754 27.0415 146.428 26.3881 147.285 25.9253C148.143 25.4489 149.109 25.2107 150.185 25.2107C151.26 25.2107 152.22 25.4489 153.064 25.9253C153.921 26.3881 154.588 27.0415 155.064 27.8855C155.555 28.7158 155.8 29.6618 155.8 30.7235C155.8 31.7853 155.555 32.7381 155.064 33.5821C154.588 34.4124 153.921 35.0658 153.064 35.5422C152.22 36.0186 151.26 36.2568 150.185 36.2568ZM150.185 34.5417C150.879 34.5417 151.498 34.3852 152.043 34.0721C152.601 33.7454 153.036 33.2962 153.349 32.7245C153.662 32.1392 153.819 31.4722 153.819 30.7235C153.819 29.9749 153.662 29.3147 153.349 28.743C153.036 28.1577 152.601 27.7085 152.043 27.3954C151.498 27.0824 150.879 26.9258 150.185 26.9258C149.49 26.9258 148.864 27.0824 148.306 27.3954C147.762 27.7085 147.326 28.1577 146.999 28.743C146.686 29.3147 146.53 29.9749 146.53 30.7235C146.53 31.4722 146.686 32.1392 146.999 32.7245C147.326 33.2962 147.762 33.7454 148.306 34.0721C148.864 34.3852 149.49 34.5417 150.185 34.5417ZM158.63 25.3128H160.59V33.1941L167.226 25.3128H169.002V36.1343H167.042V28.253L160.427 36.1343H158.63V25.3128ZM178.487 30.4989C179.209 30.6895 179.767 30.9958 180.162 31.4178C180.556 31.8397 180.754 32.3638 180.754 32.9899C180.754 33.6297 180.536 34.2014 180.1 34.705C179.665 35.1951 179.059 35.583 178.283 35.8689C177.521 36.1411 176.663 36.2772 175.711 36.2772C174.907 36.2772 174.118 36.1751 173.342 35.9709C172.58 35.7532 171.899 35.4469 171.3 35.0521L171.892 33.5616C172.41 33.8883 173.002 34.1469 173.669 34.3375C174.336 34.5145 175.01 34.6029 175.69 34.6029C176.616 34.6029 177.351 34.4464 177.895 34.1333C178.453 33.8067 178.732 33.3711 178.732 32.8266C178.732 32.3229 178.508 31.935 178.059 31.6628C177.623 31.3905 177.004 31.2544 176.201 31.2544H174.22V29.8456H176.058C176.793 29.8456 177.371 29.7163 177.793 29.4576C178.215 29.199 178.426 28.8451 178.426 28.3959C178.426 27.9059 178.174 27.5247 177.671 27.2525C177.181 26.9803 176.514 26.8441 175.67 26.8441C174.594 26.8441 173.458 27.1232 172.26 27.6813L171.729 26.1704C173.049 25.5034 174.431 25.1699 175.874 25.1699C176.745 25.1699 177.528 25.2924 178.222 25.5374C178.916 25.7824 179.461 26.1295 179.855 26.5787C180.25 27.0279 180.447 27.5384 180.447 28.1101C180.447 28.6409 180.271 29.1173 179.917 29.5393C179.563 29.9613 179.086 30.2812 178.487 30.4989ZM191.105 30.5194C192.507 30.8733 193.208 31.7512 193.208 33.1533C193.208 34.1061 192.847 34.8412 192.125 35.3584C191.418 35.8757 190.356 36.1343 188.94 36.1343H183.734V25.3128H188.756C190.036 25.3128 191.036 25.5578 191.758 26.0478C192.479 26.5243 192.84 27.2049 192.84 28.0896C192.84 28.6613 192.683 29.1582 192.37 29.5801C192.071 29.9885 191.649 30.3016 191.105 30.5194ZM185.653 29.9681H188.593C189.342 29.9681 189.907 29.832 190.288 29.5597C190.683 29.2875 190.88 28.8927 190.88 28.3755C190.88 27.341 190.118 26.8237 188.593 26.8237H185.653V29.9681ZM188.797 34.6234C189.614 34.6234 190.227 34.4941 190.635 34.2354C191.043 33.9768 191.247 33.5752 191.247 33.0308C191.247 32.4727 191.057 32.0575 190.676 31.7853C190.308 31.513 189.723 31.3769 188.92 31.3769H185.653V34.6234H188.797ZM206.056 30.7848C206.056 30.9345 206.042 31.1319 206.015 31.3769H197.235C197.358 32.3298 197.773 33.0988 198.481 33.6841C199.202 34.2558 200.094 34.5417 201.155 34.5417C202.449 34.5417 203.49 34.1061 204.279 33.2349L205.361 34.5009C204.871 35.0726 204.259 35.5081 203.524 35.8076C202.802 36.1071 201.993 36.2568 201.094 36.2568C199.951 36.2568 198.937 36.0254 198.052 35.5626C197.167 35.0862 196.48 34.426 195.99 33.5821C195.513 32.7381 195.275 31.7853 195.275 30.7235C195.275 29.6754 195.506 28.7294 195.969 27.8855C196.446 27.0415 197.092 26.3881 197.909 25.9253C198.739 25.4489 199.672 25.2107 200.706 25.2107C201.741 25.2107 202.659 25.4489 203.463 25.9253C204.279 26.3881 204.912 27.0415 205.361 27.8855C205.824 28.7294 206.056 29.6958 206.056 30.7848ZM200.706 26.8646C199.767 26.8646 198.977 27.1504 198.338 27.7221C197.712 28.2938 197.344 29.0425 197.235 29.9681H204.177C204.068 29.0561 203.694 28.3142 203.054 27.7425C202.428 27.1572 201.645 26.8646 200.706 26.8646ZM213.813 36.2568C212.71 36.2568 211.724 36.0186 210.852 35.5422C209.995 35.0658 209.321 34.4124 208.831 33.5821C208.341 32.7381 208.096 31.7853 208.096 30.7235C208.096 29.6618 208.341 28.7158 208.831 27.8855C209.321 27.0415 209.995 26.3881 210.852 25.9253C211.724 25.4489 212.71 25.2107 213.813 25.2107C214.793 25.2107 215.664 25.4081 216.427 25.8028C217.202 26.1976 217.801 26.7693 218.223 27.5179L216.733 28.4776C216.393 27.9603 215.971 27.5724 215.467 27.3138C214.963 27.0551 214.405 26.9258 213.793 26.9258C213.085 26.9258 212.445 27.0824 211.873 27.3954C211.315 27.7085 210.873 28.1577 210.546 28.743C210.233 29.3147 210.077 29.9749 210.077 30.7235C210.077 31.4858 210.233 32.1596 210.546 32.7449C210.873 33.3166 211.315 33.759 211.873 34.0721C212.445 34.3852 213.085 34.5417 213.793 34.5417C214.405 34.5417 214.963 34.4124 215.467 34.1538C215.971 33.8951 216.393 33.5072 216.733 32.9899L218.223 33.9292C217.801 34.6778 217.202 35.2563 216.427 35.6647C215.664 36.0594 214.793 36.2568 213.813 36.2568ZM228.687 27.0279H224.725V36.1343H222.765V27.0279H218.804V25.3128H228.687V27.0279ZM230.691 25.3128H232.651V33.1941L239.287 25.3128H241.063V36.1343H239.103V28.253L232.488 36.1343H230.691V25.3128Z" fill="url(#paint1_radial)"/>
<defs>
<radialGradient id="paint0_radial" cx="0" cy="0" r="1" gradientUnits="userSpaceOnUse" gradientTransform="translate(34.5971 -22.6867) rotate(21.1383) scale(254.786 1192.4)">
<stop stop-color="#030303"/>
<stop offset="0.375749" stop-color="white" stop-opacity="0.614583"/>
<stop offset="1" stop-color="white" stop-opacity="0"/>
</radialGradient>
<radialGradient id="paint1_radial" cx="0" cy="0" r="1" gradientUnits="userSpaceOnUse" gradientTransform="translate(159.373 28.9253) rotate(90) scale(27.791 106.627)">
<stop stop-color="white"/>
<stop offset="1" stop-color="white" stop-opacity="0"/>
</radialGradient>
</defs>
</svg>
