<svg width="90" height="90" viewBox="0 0 90 90" fill="none" xmlns="http://www.w3.org/2000/svg">
<path d="M62.8125 52.35C63.75 52.8375 64.35 53.1 64.5375 53.475C64.7625 53.8875 64.6875 55.7625 63.75 57.9C63 60 59.1 62.025 57.375 62.1C55.65 62.175 55.6125 63.45 46.275 59.3625C36.9375 55.275 31.3125 45.3 30.8625 44.6625C30.4125 44.025 27.2625 39.4875 27.4125 34.875C27.6 30.3 30 28.125 30.975 27.225C31.875 26.25 32.8875 26.1375 33.525 26.25H35.2875C35.85 26.25 36.6375 26.025 37.35 27.9375L39.9375 34.95C40.1625 35.4375 40.3125 36 39.975 36.6L38.9625 38.1375L37.5 39.7125C37.05 40.1625 36.525 40.65 37.05 41.5875C37.5 42.5625 39.375 45.675 42 48.2625C45.4125 51.5625 48.4125 52.65 49.3125 53.1375C50.2125 53.6625 50.775 53.5875 51.3375 52.9875L54.375 49.4625C55.0875 48.525 55.6875 48.75 56.55 49.05L62.8125 52.35ZM45 7.5C49.9246 7.5 54.8009 8.46997 59.3507 10.3545C63.9004 12.2391 68.0343 15.0013 71.5165 18.4835C74.9987 21.9657 77.761 26.0997 79.6455 30.6494C81.5301 35.1991 82.5 40.0754 82.5 45C82.5 54.9456 78.5491 64.4839 71.5165 71.5165C64.4839 78.5491 54.9456 82.5 45 82.5C37.6125 82.5 30.75 80.3625 24.9375 76.6875L7.50002 82.5L13.3125 65.0625C9.50817 59.0631 7.49196 52.1039 7.50002 45C7.50002 35.0544 11.4509 25.5161 18.4835 18.4835C25.5161 11.4509 35.0544 7.5 45 7.5ZM45 15C37.0435 15 29.4129 18.1607 23.7868 23.7868C18.1607 29.4129 15 37.0435 15 45C15 51.45 17.025 57.4125 20.475 62.2875L16.875 73.125L27.7125 69.525C32.7667 73.1008 38.8088 75.0143 45 75C52.9565 75 60.5871 71.8393 66.2132 66.2132C71.8393 60.5871 75 52.9565 75 45C75 37.0435 71.8393 29.4129 66.2132 23.7868C60.5871 18.1607 52.9565 15 45 15Z" fill="black"/>
</svg>
