<svg width="323" height="273" viewBox="0 0 323 273" fill="none" xmlns="http://www.w3.org/2000/svg">
<path d="M6 122H315V232C315 248.569 301.569 262 285 262H36C19.4315 262 6 248.569 6 232V122Z" fill="white"/>
<g filter="url(#filter0_d)">
<path d="M6 215H315V233C315 249.569 301.569 263 285 263H36C19.4315 263 6 249.569 6 233V215Z" fill="#C4C4C4"/>
</g>
<rect x="6" width="309" height="263" rx="30" fill="url(#paint0_radial)" fill-opacity="0.3"/>
<rect x="6" width="309" height="263" rx="30" fill="url(#paint1_radial)" fill-opacity="0.3"/>
<path d="M77.3901 233.308L71.4438 244.359C70.9222 245.337 70.2963 246.074 69.5661 246.57C68.8489 247.052 68.0664 247.293 67.2188 247.293C66.5407 247.293 65.8692 247.15 65.2041 246.863L65.8301 244.868C66.3647 245.037 66.8081 245.122 67.1602 245.122C67.9817 245.122 68.6598 244.698 69.1944 243.851L69.4096 243.518L63.9523 233.308H66.6712L70.7201 241.347L74.8864 233.308H77.3901ZM84.5322 241.562C85.1842 241.745 85.6863 242.045 86.0384 242.462C86.4035 242.866 86.586 243.355 86.586 243.929C86.586 244.568 86.3709 245.135 85.9406 245.631C85.5102 246.113 84.9169 246.491 84.1606 246.765C83.4042 247.039 82.5436 247.176 81.5786 247.176C80.7701 247.176 79.9812 247.085 79.2118 246.902C78.4425 246.707 77.7448 246.433 77.1189 246.081L77.8231 244.262C78.3316 244.548 78.9054 244.77 79.5444 244.927C80.1833 245.083 80.8223 245.161 81.4613 245.161C82.2828 245.161 82.9218 245.037 83.3782 244.79C83.8476 244.529 84.0823 244.177 84.0823 243.733C84.0823 243.329 83.8998 243.016 83.5346 242.795C83.1826 242.573 82.6805 242.462 82.0285 242.462H79.9942V240.819H81.8329C82.4458 240.819 82.9218 240.715 83.2608 240.506C83.6129 240.297 83.7889 240.004 83.7889 239.626C83.7889 239.248 83.5803 238.948 83.163 238.726C82.7457 238.504 82.172 238.394 81.4417 238.394C80.3985 238.394 79.2966 238.648 78.136 239.156L77.5101 237.357C78.8793 236.718 80.2616 236.398 81.6569 236.398C82.5436 236.398 83.339 236.522 84.0432 236.77C84.7474 237.005 85.2951 237.344 85.6863 237.787C86.0905 238.217 86.2926 238.713 86.2926 239.274C86.2926 239.782 86.1362 240.239 85.8232 240.643C85.5102 241.034 85.0799 241.341 84.5322 241.562ZM89.1232 236.555H91.5682V240.799H96.8299V236.555H99.275V247H96.8299V242.873H91.5682V247H89.1232V236.555ZM106.444 236.437C107.983 236.437 109.157 236.809 109.965 237.552C110.787 238.283 111.197 239.391 111.197 240.878V247H108.889V245.729C108.589 246.185 108.159 246.537 107.598 246.785C107.051 247.02 106.386 247.137 105.603 247.137C104.821 247.137 104.136 247.007 103.549 246.746C102.963 246.472 102.506 246.1 102.18 245.631C101.867 245.148 101.711 244.607 101.711 244.007C101.711 243.068 102.056 242.319 102.747 241.758C103.452 241.184 104.553 240.897 106.053 240.897H108.752V240.741C108.752 240.01 108.531 239.45 108.087 239.059C107.657 238.667 107.011 238.472 106.151 238.472C105.564 238.472 104.984 238.563 104.41 238.746C103.849 238.928 103.373 239.182 102.982 239.508L102.024 237.728C102.571 237.311 103.23 236.992 103.999 236.77C104.769 236.548 105.584 236.437 106.444 236.437ZM106.112 245.357C106.725 245.357 107.266 245.22 107.735 244.946C108.218 244.659 108.557 244.255 108.752 243.733V242.521H106.229C104.821 242.521 104.117 242.984 104.117 243.909C104.117 244.353 104.293 244.705 104.645 244.966C104.997 245.227 105.486 245.357 106.112 245.357ZM122.497 238.628H118.839V247H116.394V238.628H112.717V236.555H122.497V238.628ZM129.513 239.997C130.843 239.997 131.86 240.297 132.564 240.897C133.281 241.497 133.64 242.345 133.64 243.44C133.64 244.588 133.249 245.474 132.466 246.1C131.684 246.726 130.582 247.033 129.161 247.02L124.27 247V236.555H126.715V239.978L129.513 239.997ZM128.945 245.22C129.663 245.233 130.21 245.083 130.588 244.77C130.967 244.457 131.156 244.001 131.156 243.401C131.156 242.814 130.973 242.384 130.608 242.11C130.243 241.836 129.689 241.693 128.945 241.68L126.715 241.66V245.2L128.945 245.22ZM151.209 236.555V247H148.784V238.628H143.64V247H141.195V236.555H151.209ZM159.164 247.137C158.108 247.137 157.156 246.909 156.308 246.452C155.46 245.996 154.795 245.363 154.313 244.555C153.843 243.733 153.609 242.808 153.609 241.777C153.609 240.747 153.843 239.828 154.313 239.019C154.795 238.211 155.46 237.579 156.308 237.122C157.156 236.666 158.108 236.437 159.164 236.437C160.233 236.437 161.192 236.666 162.039 237.122C162.887 237.579 163.545 238.211 164.015 239.019C164.497 239.828 164.739 240.747 164.739 241.777C164.739 242.808 164.497 243.733 164.015 244.555C163.545 245.363 162.887 245.996 162.039 246.452C161.192 246.909 160.233 247.137 159.164 247.137ZM159.164 245.044C160.064 245.044 160.807 244.744 161.394 244.144C161.981 243.544 162.274 242.755 162.274 241.777C162.274 240.799 161.981 240.01 161.394 239.411C160.807 238.811 160.064 238.511 159.164 238.511C158.264 238.511 157.521 238.811 156.934 239.411C156.36 240.01 156.073 240.799 156.073 241.777C156.073 242.755 156.36 243.544 156.934 244.144C157.521 244.744 158.264 245.044 159.164 245.044ZM178.189 244.927V249.328H175.9V247H167.841V249.328H165.572V244.927H166.061C166.726 244.901 167.176 244.477 167.411 243.655C167.659 242.821 167.822 241.647 167.9 240.134L168.037 236.555H176.643V244.927H178.189ZM170.13 240.31C170.078 241.51 169.98 242.488 169.836 243.244C169.693 244.001 169.432 244.561 169.054 244.927H174.198V238.628H170.188L170.13 240.31ZM186.162 236.437C187.179 236.437 188.086 236.659 188.881 237.103C189.69 237.546 190.322 238.172 190.778 238.98C191.235 239.789 191.463 240.721 191.463 241.777C191.463 242.834 191.235 243.773 190.778 244.594C190.322 245.403 189.69 246.029 188.881 246.472C188.086 246.915 187.179 247.137 186.162 247.137C184.754 247.137 183.639 246.667 182.817 245.729V250.795H180.372V236.555H182.7V237.924C183.104 237.429 183.6 237.057 184.187 236.809C184.786 236.561 185.445 236.437 186.162 236.437ZM185.888 245.044C186.788 245.044 187.525 244.744 188.099 244.144C188.685 243.544 188.979 242.755 188.979 241.777C188.979 240.799 188.685 240.01 188.099 239.411C187.525 238.811 186.788 238.511 185.888 238.511C185.302 238.511 184.773 238.648 184.304 238.922C183.834 239.182 183.463 239.561 183.189 240.056C182.915 240.552 182.778 241.125 182.778 241.777C182.778 242.429 182.915 243.003 183.189 243.499C183.463 243.994 183.834 244.379 184.304 244.653C184.773 244.914 185.302 245.044 185.888 245.044ZM198.552 247.137C197.495 247.137 196.544 246.909 195.696 246.452C194.848 245.996 194.183 245.363 193.701 244.555C193.231 243.733 192.997 242.808 192.997 241.777C192.997 240.747 193.231 239.828 193.701 239.019C194.183 238.211 194.848 237.579 195.696 237.122C196.544 236.666 197.495 236.437 198.552 236.437C199.621 236.437 200.579 236.666 201.427 237.122C202.275 237.579 202.933 238.211 203.403 239.019C203.885 239.828 204.126 240.747 204.126 241.777C204.126 242.808 203.885 243.733 203.403 244.555C202.933 245.363 202.275 245.996 201.427 246.452C200.579 246.909 199.621 247.137 198.552 247.137ZM198.552 245.044C199.451 245.044 200.195 244.744 200.782 244.144C201.368 243.544 201.662 242.755 201.662 241.777C201.662 240.799 201.368 240.01 200.782 239.411C200.195 238.811 199.451 238.511 198.552 238.511C197.652 238.511 196.909 238.811 196.322 239.411C195.748 240.01 195.461 240.799 195.461 241.777C195.461 242.755 195.748 243.544 196.322 244.144C196.909 244.744 197.652 245.044 198.552 245.044ZM212.195 237.063C213.186 237.063 214.059 237.279 214.816 237.709C215.572 238.126 216.159 238.713 216.576 239.469C217.006 240.226 217.222 241.093 217.222 242.071C217.222 243.075 216.987 243.968 216.517 244.751C216.048 245.52 215.389 246.12 214.542 246.55C213.694 246.98 212.729 247.196 211.647 247.196C209.834 247.196 208.433 246.596 207.442 245.396C206.45 244.196 205.955 242.469 205.955 240.213C205.955 238.113 206.405 236.451 207.305 235.225C208.204 233.999 209.58 233.19 211.432 232.799L216.283 231.763L216.635 233.953L212.234 234.853C210.969 235.114 210.023 235.557 209.398 236.183C208.772 236.809 208.406 237.689 208.302 238.824C208.772 238.263 209.339 237.833 210.004 237.533C210.669 237.22 211.399 237.063 212.195 237.063ZM211.706 245.22C212.605 245.22 213.329 244.933 213.877 244.359C214.438 243.773 214.718 243.029 214.718 242.13C214.718 241.23 214.438 240.506 213.877 239.958C213.329 239.411 212.605 239.137 211.706 239.137C210.793 239.137 210.056 239.411 209.495 239.958C208.935 240.506 208.654 241.23 208.654 242.13C208.654 243.042 208.935 243.786 209.495 244.359C210.069 244.933 210.806 245.22 211.706 245.22ZM219.588 236.555H222.033V240.799H227.295V236.555H229.74V247H227.295V242.873H222.033V247H219.588V236.555ZM242.797 241.836C242.797 242.006 242.784 242.247 242.758 242.56H234.562C234.705 243.329 235.077 243.942 235.677 244.398C236.29 244.842 237.046 245.064 237.946 245.064C239.093 245.064 240.039 244.685 240.782 243.929L242.093 245.435C241.623 245.996 241.03 246.42 240.313 246.707C239.596 246.993 238.787 247.137 237.887 247.137C236.74 247.137 235.729 246.909 234.855 246.452C233.982 245.996 233.304 245.363 232.821 244.555C232.352 243.733 232.117 242.808 232.117 241.777C232.117 240.76 232.345 239.847 232.802 239.039C233.271 238.217 233.917 237.579 234.738 237.122C235.56 236.666 236.485 236.437 237.516 236.437C238.533 236.437 239.439 236.666 240.235 237.122C241.043 237.565 241.669 238.198 242.112 239.019C242.569 239.828 242.797 240.767 242.797 241.836ZM237.516 238.394C236.733 238.394 236.068 238.628 235.52 239.098C234.986 239.554 234.66 240.167 234.542 240.936H240.469C240.365 240.18 240.045 239.567 239.511 239.098C238.976 238.628 238.311 238.394 237.516 238.394ZM255.251 241.836C255.251 242.006 255.238 242.247 255.212 242.56H247.016C247.16 243.329 247.531 243.942 248.131 244.398C248.744 244.842 249.501 245.064 250.4 245.064C251.548 245.064 252.493 244.685 253.237 243.929L254.547 245.435C254.078 245.996 253.484 246.42 252.767 246.707C252.05 246.993 251.241 247.137 250.342 247.137C249.194 247.137 248.183 246.909 247.31 246.452C246.436 245.996 245.758 245.363 245.276 244.555C244.806 243.733 244.571 242.808 244.571 241.777C244.571 240.76 244.8 239.847 245.256 239.039C245.725 238.217 246.371 237.579 247.192 237.122C248.014 236.666 248.94 236.437 249.97 236.437C250.987 236.437 251.893 236.666 252.689 237.122C253.497 237.565 254.123 238.198 254.567 239.019C255.023 239.828 255.251 240.767 255.251 241.836ZM249.97 238.394C249.188 238.394 248.523 238.628 247.975 239.098C247.44 239.554 247.114 240.167 246.997 240.936H252.924C252.819 240.18 252.5 239.567 251.965 239.098C251.43 238.628 250.765 238.394 249.97 238.394Z" fill="white"/>
<rect x="6" y="211" width="309" height="4" fill="white"/>
<rect x="6" y="119" width="309" height="4" fill="white"/>
<path d="M110.303 159.316C108.073 159.316 106.053 158.832 104.244 157.864C102.456 156.875 101.047 155.518 100.016 153.793C99.0059 152.068 98.501 150.122 98.501 147.955C98.501 145.789 99.0164 143.843 100.047 142.118C101.078 140.393 102.488 139.046 104.276 138.079C106.085 137.09 108.105 136.595 110.334 136.595C112.144 136.595 113.795 136.911 115.289 137.542C116.782 138.173 118.045 139.088 119.075 140.287L116.425 142.78C114.826 141.055 112.859 140.193 110.524 140.193C109.009 140.193 107.652 140.529 106.453 141.203C105.254 141.855 104.318 142.77 103.645 143.948C102.971 145.126 102.635 146.462 102.635 147.955C102.635 149.449 102.971 150.785 103.645 151.963C104.318 153.141 105.254 154.067 106.453 154.74C107.652 155.392 109.009 155.718 110.524 155.718C112.859 155.718 114.826 154.845 116.425 153.099L119.075 155.624C118.045 156.823 116.772 157.738 115.257 158.369C113.764 159 112.112 159.316 110.303 159.316ZM128.568 141.96C131.05 141.96 132.944 142.559 134.248 143.759C135.573 144.937 136.236 146.725 136.236 149.123V159H132.512V156.949C132.029 157.685 131.334 158.253 130.43 158.653C129.546 159.032 128.473 159.221 127.211 159.221C125.949 159.221 124.844 159.011 123.898 158.59C122.951 158.148 122.215 157.548 121.689 156.791C121.184 156.013 120.932 155.14 120.932 154.172C120.932 152.657 121.489 151.448 122.604 150.543C123.74 149.617 125.518 149.155 127.937 149.155H132.292V148.902C132.292 147.724 131.934 146.819 131.219 146.188C130.524 145.557 129.483 145.242 128.095 145.242C127.148 145.242 126.212 145.389 125.286 145.683C124.382 145.978 123.614 146.388 122.983 146.914L121.436 144.043C122.32 143.369 123.382 142.854 124.624 142.496C125.865 142.139 127.18 141.96 128.568 141.96ZM128.032 156.349C129.02 156.349 129.893 156.128 130.651 155.687C131.429 155.224 131.976 154.572 132.292 153.73V151.774H128.221C125.949 151.774 124.813 152.521 124.813 154.014C124.813 154.729 125.097 155.297 125.665 155.718C126.233 156.139 127.022 156.349 128.032 156.349ZM141.117 142.149H145.062V153.257L154.371 142.149H157.968V159H154.023V147.892L144.746 159H141.117V142.149ZM149.29 140.161C147.586 140.161 146.282 139.772 145.377 138.994C144.494 138.194 144.041 137.037 144.02 135.523H146.639C146.66 136.28 146.892 136.879 147.334 137.321C147.796 137.763 148.438 137.984 149.259 137.984C150.058 137.984 150.689 137.763 151.152 137.321C151.636 136.879 151.888 136.28 151.909 135.523H154.591C154.57 137.037 154.108 138.194 153.203 138.994C152.298 139.772 150.994 140.161 149.29 140.161ZM176.622 145.494H170.721V159H166.777V145.494H160.844V142.149H176.622V145.494ZM187.688 147.703C189.834 147.703 191.474 148.187 192.61 149.155C193.746 150.122 194.314 151.49 194.314 153.257C194.314 155.108 193.683 156.539 192.421 157.548C191.18 158.558 189.413 159.053 187.12 159.032L179.483 159V142.149H183.428V147.671L187.688 147.703ZM196.492 142.149H200.436V159H196.492V142.149ZM186.773 156.128C187.93 156.149 188.813 155.908 189.423 155.403C190.033 154.898 190.338 154.161 190.338 153.194C190.338 152.247 190.044 151.553 189.455 151.111C188.866 150.669 187.972 150.438 186.773 150.417L183.428 150.385V156.097L186.773 156.128ZM213.545 148.587H222.222V151.868H213.545V148.587ZM71.8662 179.96C74.3486 179.96 76.242 180.559 77.5463 181.759C78.8716 182.937 79.5343 184.725 79.5343 187.123V197H75.8107V194.949C75.3268 195.685 74.6326 196.253 73.728 196.653C72.8445 197.032 71.7716 197.221 70.5093 197.221C69.2471 197.221 68.1426 197.011 67.196 196.59C66.2493 196.148 65.513 195.548 64.9871 194.791C64.4822 194.013 64.2297 193.14 64.2297 192.172C64.2297 190.657 64.7872 189.448 65.9022 188.543C67.0382 187.617 68.8158 187.155 71.2351 187.155H75.5898V186.902C75.5898 185.724 75.2322 184.819 74.5169 184.188C73.8227 183.557 72.7813 183.242 71.3929 183.242C70.4462 183.242 69.5101 183.389 68.5844 183.683C67.6798 183.978 66.912 184.388 66.2809 184.914L64.7346 182.043C65.6182 181.369 66.6806 180.854 67.9218 180.496C69.163 180.139 70.4778 179.96 71.8662 179.96ZM71.3298 194.349C72.3185 194.349 73.1916 194.128 73.9489 193.687C74.7273 193.224 75.2743 192.572 75.5898 191.73V189.774H71.5191C69.2471 189.774 68.1111 190.521 68.1111 192.014C68.1111 192.729 68.3951 193.297 68.9631 193.718C69.5311 194.139 70.32 194.349 71.3298 194.349ZM97.3532 183.494H88.3598V197H84.4153V180.149H97.3532V183.494ZM109.565 179.96C111.205 179.96 112.668 180.318 113.951 181.033C115.255 181.748 116.275 182.758 117.012 184.062C117.748 185.366 118.116 186.871 118.116 188.575C118.116 190.279 117.748 191.793 117.012 193.119C116.275 194.423 115.255 195.433 113.951 196.148C112.668 196.863 111.205 197.221 109.565 197.221C107.293 197.221 105.494 196.464 104.168 194.949V203.122H100.224V180.149H103.979V182.358C104.631 181.559 105.431 180.959 106.377 180.559C107.345 180.16 108.407 179.96 109.565 179.96ZM109.123 193.844C110.574 193.844 111.763 193.361 112.689 192.393C113.635 191.425 114.109 190.152 114.109 188.575C114.109 186.997 113.635 185.724 112.689 184.756C111.763 183.789 110.574 183.305 109.123 183.305C108.176 183.305 107.324 183.526 106.567 183.967C105.809 184.388 105.21 184.998 104.768 185.798C104.326 186.597 104.105 187.523 104.105 188.575C104.105 189.626 104.326 190.552 104.768 191.352C105.21 192.151 105.809 192.772 106.567 193.213C107.324 193.634 108.176 193.844 109.123 193.844ZM137.82 188.669C137.82 188.943 137.799 189.332 137.757 189.837H124.535C124.766 191.078 125.366 192.067 126.333 192.803C127.322 193.518 128.542 193.876 129.994 193.876C131.845 193.876 133.37 193.266 134.57 192.046L136.684 194.476C135.926 195.38 134.969 196.064 133.812 196.527C132.655 196.989 131.351 197.221 129.899 197.221C128.048 197.221 126.418 196.853 125.008 196.116C123.599 195.38 122.505 194.36 121.726 193.056C120.969 191.73 120.59 190.237 120.59 188.575C120.59 186.934 120.958 185.461 121.695 184.157C122.452 182.831 123.493 181.801 124.819 181.064C126.144 180.328 127.638 179.96 129.3 179.96C130.941 179.96 132.403 180.328 133.686 181.064C134.99 181.78 136 182.8 136.715 184.125C137.452 185.43 137.82 186.944 137.82 188.669ZM129.3 183.115C128.037 183.115 126.965 183.494 126.081 184.251C125.219 184.988 124.693 185.977 124.503 187.218H134.065C133.896 185.998 133.381 185.009 132.518 184.251C131.656 183.494 130.583 183.115 129.3 183.115ZM155.072 183.494H146.079V197H142.134V180.149H155.072V183.494ZM164.222 179.96C166.705 179.96 168.598 180.559 169.902 181.759C171.228 182.937 171.89 184.725 171.89 187.123V197H168.167V194.949C167.683 195.685 166.989 196.253 166.084 196.653C165.201 197.032 164.128 197.221 162.865 197.221C161.603 197.221 160.499 197.011 159.552 196.59C158.605 196.148 157.869 195.548 157.343 194.791C156.838 194.013 156.586 193.14 156.586 192.172C156.586 190.657 157.143 189.448 158.258 188.543C159.394 187.617 161.172 187.155 163.591 187.155H167.946V186.902C167.946 185.724 167.588 184.819 166.873 184.188C166.179 183.557 165.137 183.242 163.749 183.242C162.802 183.242 161.866 183.389 160.941 183.683C160.036 183.978 159.268 184.388 158.637 184.914L157.091 182.043C157.974 181.369 159.037 180.854 160.278 180.496C161.519 180.139 162.834 179.96 164.222 179.96ZM163.686 194.349C164.675 194.349 165.548 194.128 166.305 193.687C167.083 193.224 167.63 192.572 167.946 191.73V189.774H163.875C161.603 189.774 160.467 190.521 160.467 192.014C160.467 192.729 160.751 193.297 161.319 193.718C161.887 194.139 162.676 194.349 163.686 194.349ZM190.12 183.494H184.219V197H180.274V183.494H174.342V180.149H190.12V183.494ZM199.751 197.221C198.047 197.221 196.512 196.853 195.144 196.116C193.777 195.38 192.704 194.36 191.926 193.056C191.168 191.73 190.79 190.237 190.79 188.575C190.79 186.913 191.168 185.43 191.926 184.125C192.704 182.821 193.777 181.801 195.144 181.064C196.512 180.328 198.047 179.96 199.751 179.96C201.476 179.96 203.023 180.328 204.39 181.064C205.758 181.801 206.82 182.821 207.577 184.125C208.356 185.43 208.745 186.913 208.745 188.575C208.745 190.237 208.356 191.73 207.577 193.056C206.82 194.36 205.758 195.38 204.39 196.116C203.023 196.853 201.476 197.221 199.751 197.221ZM199.751 193.844C201.203 193.844 202.402 193.361 203.349 192.393C204.295 191.425 204.769 190.152 204.769 188.575C204.769 186.997 204.295 185.724 203.349 184.756C202.402 183.789 201.203 183.305 199.751 183.305C198.3 183.305 197.101 183.789 196.154 184.756C195.228 185.724 194.766 186.997 194.766 188.575C194.766 190.152 195.228 191.425 196.154 192.393C197.101 193.361 198.3 193.844 199.751 193.844ZM221.982 179.96C223.623 179.96 225.085 180.318 226.368 181.033C227.673 181.748 228.693 182.758 229.429 184.062C230.165 185.366 230.534 186.871 230.534 188.575C230.534 190.279 230.165 191.793 229.429 193.119C228.693 194.423 227.673 195.433 226.368 196.148C225.085 196.863 223.623 197.221 221.982 197.221C219.71 197.221 217.911 196.464 216.586 194.949V203.122H212.641V180.149H216.397V182.358C217.049 181.559 217.848 180.959 218.795 180.559C219.763 180.16 220.825 179.96 221.982 179.96ZM221.54 193.844C222.992 193.844 224.18 193.361 225.106 192.393C226.053 191.425 226.526 190.152 226.526 188.575C226.526 186.997 226.053 185.724 225.106 184.756C224.18 183.789 222.992 183.305 221.54 183.305C220.594 183.305 219.742 183.526 218.984 183.967C218.227 184.388 217.627 184.998 217.186 185.798C216.744 186.597 216.523 187.523 216.523 188.575C216.523 189.626 216.744 190.552 217.186 191.352C217.627 192.151 218.227 192.772 218.984 193.213C219.742 193.634 220.594 193.844 221.54 193.844ZM242.664 185.703C244.81 185.703 246.451 186.187 247.587 187.155C248.723 188.122 249.291 189.49 249.291 191.257C249.291 193.108 248.659 194.539 247.397 195.548C246.156 196.558 244.389 197.053 242.096 197.032L234.459 197V180.149H238.404V185.671L242.664 185.703ZM251.468 180.149H255.412V197H251.468V180.149ZM241.749 194.128C242.906 194.149 243.789 193.908 244.399 193.403C245.009 192.898 245.315 192.161 245.315 191.194C245.315 190.247 245.02 189.553 244.431 189.111C243.842 188.669 242.948 188.438 241.749 188.417L238.404 188.385V194.097L241.749 194.128Z" fill="white"/>
<rect x="37" y="63" width="55" height="6" rx="3" fill="white"/>
<rect x="37" y="48" width="55" height="6" rx="3" fill="white"/>
<rect x="37" y="78" width="55" height="6" rx="3" fill="white"/>
<rect x="37" y="93" width="55" height="6" rx="3" fill="white"/>
<rect x="121" y="63" width="56" height="6" rx="3" fill="white"/>
<rect x="121" y="48" width="56" height="6" rx="3" fill="white"/>
<rect x="121" y="78" width="56" height="6" rx="3" fill="white"/>
<rect x="121" y="93" width="56" height="6" rx="3" fill="white"/>
<rect x="205" y="63" width="56" height="6" rx="3" fill="white"/>
<rect x="205" y="48" width="56" height="6" rx="3" fill="white"/>
<rect x="205" y="78" width="56" height="6" rx="3" fill="white"/>
<rect x="205" y="93" width="56" height="6" rx="3" fill="white"/>
<rect x="38.5" y="21.5" width="200" height="12" rx="3.5" stroke="white" stroke-width="3"/>
<path d="M272.406 27.2089C272.406 32.7584 267.419 37.4179 261.059 37.4179C254.699 37.4179 249.712 32.7584 249.712 27.2089C249.712 21.6595 254.699 17 261.059 17C267.419 17 272.406 21.6595 272.406 27.2089Z" stroke="white" stroke-width="2"/>
<rect x="1.47426" y="-0.128389" width="5.79511" height="14.6454" rx="1" transform="matrix(0.678768 -0.734353 0.795493 0.605963 269.043 39.196)" stroke="white" stroke-width="2"/>
<mask id="path-24-inside-1" fill="white">
<path d="M268.303 27.263C268.678 27.3532 269.075 27.1257 269.133 26.7464C269.225 26.1488 269.213 25.5414 269.095 24.9485C268.933 24.1288 268.574 23.358 268.045 22.6942C267.516 22.0303 266.832 21.4906 266.043 21.1158C265.459 20.8381 264.828 20.6563 264.179 20.5765C263.804 20.5304 263.481 20.8352 263.468 21.2061C263.456 21.5664 263.743 21.8531 264.105 21.9083C264.551 21.9764 264.984 22.108 265.387 22.2999C265.987 22.5849 266.508 22.9954 266.91 23.5003C267.312 24.0053 267.585 24.5915 267.709 25.215C267.787 25.6116 267.804 26.0166 267.76 26.4177C267.717 26.7983 267.927 27.1727 268.303 27.263Z"/>
</mask>
<path d="M268.303 27.263C268.678 27.3532 269.075 27.1257 269.133 26.7464C269.225 26.1488 269.213 25.5414 269.095 24.9485C268.933 24.1288 268.574 23.358 268.045 22.6942C267.516 22.0303 266.832 21.4906 266.043 21.1158C265.459 20.8381 264.828 20.6563 264.179 20.5765C263.804 20.5304 263.481 20.8352 263.468 21.2061C263.456 21.5664 263.743 21.8531 264.105 21.9083C264.551 21.9764 264.984 22.108 265.387 22.2999C265.987 22.5849 266.508 22.9954 266.91 23.5003C267.312 24.0053 267.585 24.5915 267.709 25.215C267.787 25.6116 267.804 26.0166 267.76 26.4177C267.717 26.7983 267.927 27.1727 268.303 27.263Z" stroke="white" stroke-width="4" mask="url(#path-24-inside-1)"/>
<defs>
<filter id="filter0_d" x="0" y="211" width="323" height="62" filterUnits="userSpaceOnUse" color-interpolation-filters="sRGB">
<feFlood flood-opacity="0" result="BackgroundImageFix"/>
<feColorMatrix in="SourceAlpha" type="matrix" values="0 0 0 0 0 0 0 0 0 0 0 0 0 0 0 0 0 0 127 0"/>
<feOffset dx="1" dy="3"/>
<feGaussianBlur stdDeviation="3.5"/>
<feColorMatrix type="matrix" values="0 0 0 0 0 0 0 0 0 0 0 0 0 0 0 0 0 0 0.15 0"/>
<feBlend mode="normal" in2="BackgroundImageFix" result="effect1_dropShadow"/>
<feBlend mode="normal" in="SourceGraphic" in2="effect1_dropShadow" result="shape"/>
</filter>
<radialGradient id="paint0_radial" cx="0" cy="0" r="1" gradientUnits="userSpaceOnUse" gradientTransform="translate(73.2823 41.2942) rotate(43.7526) scale(391.902 284.881)">
<stop/>
<stop offset="1" stop-color="#322828" stop-opacity="0"/>
</radialGradient>
<radialGradient id="paint1_radial" cx="0" cy="0" r="1" gradientUnits="userSpaceOnUse" gradientTransform="translate(73.2823 41.2942) rotate(43.7526) scale(391.902 284.881)">
<stop/>
<stop offset="1" stop-color="#322828" stop-opacity="0"/>
</radialGradient>
</defs>
</svg>
