<svg width="323" height="273" viewBox="0 0 323 273" fill="none" xmlns="http://www.w3.org/2000/svg">
<path d="M6 122H315V232C315 248.569 301.569 262 285 262H36C19.4315 262 6 248.569 6 232V122Z" fill="white"/>
<g filter="url(#filter0_d)">
<path d="M6 215H315V233C315 249.569 301.569 263 285 263H36C19.4315 263 6 249.569 6 233V215Z" fill="#C4C4C4"/>
</g>
<rect x="6" width="309" height="263" rx="30" fill="url(#paint0_radial)" fill-opacity="0.3"/>
<rect x="6" width="309" height="263" rx="30" fill="url(#paint1_radial)" fill-opacity="0.3"/>
<path d="M77.3901 233.308L71.4438 244.359C70.9222 245.337 70.2963 246.074 69.5661 246.57C68.8489 247.052 68.0664 247.293 67.2188 247.293C66.5407 247.293 65.8692 247.15 65.2041 246.863L65.8301 244.868C66.3647 245.037 66.8081 245.122 67.1602 245.122C67.9817 245.122 68.6598 244.698 69.1944 243.851L69.4096 243.518L63.9523 233.308H66.6712L70.7201 241.347L74.8864 233.308H77.3901ZM84.5322 241.562C85.1842 241.745 85.6863 242.045 86.0384 242.462C86.4035 242.866 86.586 243.355 86.586 243.929C86.586 244.568 86.3709 245.135 85.9406 245.631C85.5102 246.113 84.9169 246.491 84.1606 246.765C83.4042 247.039 82.5436 247.176 81.5786 247.176C80.7701 247.176 79.9812 247.085 79.2118 246.902C78.4425 246.707 77.7448 246.433 77.1189 246.081L77.8231 244.262C78.3316 244.548 78.9054 244.77 79.5444 244.927C80.1833 245.083 80.8223 245.161 81.4613 245.161C82.2828 245.161 82.9218 245.037 83.3782 244.79C83.8476 244.529 84.0823 244.177 84.0823 243.733C84.0823 243.329 83.8998 243.016 83.5346 242.795C83.1826 242.573 82.6805 242.462 82.0285 242.462H79.9942V240.819H81.8329C82.4458 240.819 82.9218 240.715 83.2608 240.506C83.6129 240.297 83.7889 240.004 83.7889 239.626C83.7889 239.248 83.5803 238.948 83.163 238.726C82.7457 238.504 82.172 238.394 81.4417 238.394C80.3985 238.394 79.2966 238.648 78.136 239.156L77.5101 237.357C78.8793 236.718 80.2616 236.398 81.6569 236.398C82.5436 236.398 83.339 236.522 84.0432 236.77C84.7474 237.005 85.2951 237.344 85.6863 237.787C86.0905 238.217 86.2926 238.713 86.2926 239.274C86.2926 239.782 86.1362 240.239 85.8232 240.643C85.5102 241.034 85.0799 241.341 84.5322 241.562ZM89.1232 236.555H91.5682V240.799H96.8299V236.555H99.275V247H96.8299V242.873H91.5682V247H89.1232V236.555ZM106.444 236.437C107.983 236.437 109.157 236.809 109.965 237.552C110.787 238.283 111.197 239.391 111.197 240.878V247H108.889V245.729C108.589 246.185 108.159 246.537 107.598 246.785C107.051 247.02 106.386 247.137 105.603 247.137C104.821 247.137 104.136 247.007 103.549 246.746C102.963 246.472 102.506 246.1 102.18 245.631C101.867 245.148 101.711 244.607 101.711 244.007C101.711 243.068 102.056 242.319 102.747 241.758C103.452 241.184 104.553 240.897 106.053 240.897H108.752V240.741C108.752 240.01 108.531 239.45 108.087 239.059C107.657 238.667 107.011 238.472 106.151 238.472C105.564 238.472 104.984 238.563 104.41 238.746C103.849 238.928 103.373 239.182 102.982 239.508L102.024 237.728C102.571 237.311 103.23 236.992 103.999 236.77C104.769 236.548 105.584 236.437 106.444 236.437ZM106.112 245.357C106.725 245.357 107.266 245.22 107.735 244.946C108.218 244.659 108.557 244.255 108.752 243.733V242.521H106.229C104.821 242.521 104.117 242.984 104.117 243.909C104.117 244.353 104.293 244.705 104.645 244.966C104.997 245.227 105.486 245.357 106.112 245.357ZM122.497 238.628H118.839V247H116.394V238.628H112.717V236.555H122.497V238.628ZM129.513 239.997C130.843 239.997 131.86 240.297 132.564 240.897C133.281 241.497 133.64 242.345 133.64 243.44C133.64 244.588 133.249 245.474 132.466 246.1C131.684 246.726 130.582 247.033 129.161 247.02L124.27 247V236.555H126.715V239.978L129.513 239.997ZM128.945 245.22C129.663 245.233 130.21 245.083 130.588 244.77C130.967 244.457 131.156 244.001 131.156 243.401C131.156 242.814 130.973 242.384 130.608 242.11C130.243 241.836 129.689 241.693 128.945 241.68L126.715 241.66V245.2L128.945 245.22ZM151.209 236.555V247H148.784V238.628H143.64V247H141.195V236.555H151.209ZM159.164 247.137C158.108 247.137 157.156 246.909 156.308 246.452C155.46 245.996 154.795 245.363 154.313 244.555C153.843 243.733 153.609 242.808 153.609 241.777C153.609 240.747 153.843 239.828 154.313 239.019C154.795 238.211 155.46 237.579 156.308 237.122C157.156 236.666 158.108 236.437 159.164 236.437C160.233 236.437 161.192 236.666 162.039 237.122C162.887 237.579 163.545 238.211 164.015 239.019C164.497 239.828 164.739 240.747 164.739 241.777C164.739 242.808 164.497 243.733 164.015 244.555C163.545 245.363 162.887 245.996 162.039 246.452C161.192 246.909 160.233 247.137 159.164 247.137ZM159.164 245.044C160.064 245.044 160.807 244.744 161.394 244.144C161.981 243.544 162.274 242.755 162.274 241.777C162.274 240.799 161.981 240.01 161.394 239.411C160.807 238.811 160.064 238.511 159.164 238.511C158.264 238.511 157.521 238.811 156.934 239.411C156.36 240.01 156.073 240.799 156.073 241.777C156.073 242.755 156.36 243.544 156.934 244.144C157.521 244.744 158.264 245.044 159.164 245.044ZM178.189 244.927V249.328H175.9V247H167.841V249.328H165.572V244.927H166.061C166.726 244.901 167.176 244.477 167.411 243.655C167.659 242.821 167.822 241.647 167.9 240.134L168.037 236.555H176.643V244.927H178.189ZM170.13 240.31C170.078 241.51 169.98 242.488 169.836 243.244C169.693 244.001 169.432 244.561 169.054 244.927H174.198V238.628H170.188L170.13 240.31ZM186.162 236.437C187.179 236.437 188.086 236.659 188.881 237.103C189.69 237.546 190.322 238.172 190.778 238.98C191.235 239.789 191.463 240.721 191.463 241.777C191.463 242.834 191.235 243.773 190.778 244.594C190.322 245.403 189.69 246.029 188.881 246.472C188.086 246.915 187.179 247.137 186.162 247.137C184.754 247.137 183.639 246.667 182.817 245.729V250.795H180.372V236.555H182.7V237.924C183.104 237.429 183.6 237.057 184.187 236.809C184.786 236.561 185.445 236.437 186.162 236.437ZM185.888 245.044C186.788 245.044 187.525 244.744 188.099 244.144C188.685 243.544 188.979 242.755 188.979 241.777C188.979 240.799 188.685 240.01 188.099 239.411C187.525 238.811 186.788 238.511 185.888 238.511C185.302 238.511 184.773 238.648 184.304 238.922C183.834 239.182 183.463 239.561 183.189 240.056C182.915 240.552 182.778 241.125 182.778 241.777C182.778 242.429 182.915 243.003 183.189 243.499C183.463 243.994 183.834 244.379 184.304 244.653C184.773 244.914 185.302 245.044 185.888 245.044ZM198.552 247.137C197.495 247.137 196.544 246.909 195.696 246.452C194.848 245.996 194.183 245.363 193.701 244.555C193.231 243.733 192.997 242.808 192.997 241.777C192.997 240.747 193.231 239.828 193.701 239.019C194.183 238.211 194.848 237.579 195.696 237.122C196.544 236.666 197.495 236.437 198.552 236.437C199.621 236.437 200.579 236.666 201.427 237.122C202.275 237.579 202.933 238.211 203.403 239.019C203.885 239.828 204.126 240.747 204.126 241.777C204.126 242.808 203.885 243.733 203.403 244.555C202.933 245.363 202.275 245.996 201.427 246.452C200.579 246.909 199.621 247.137 198.552 247.137ZM198.552 245.044C199.451 245.044 200.195 244.744 200.782 244.144C201.368 243.544 201.662 242.755 201.662 241.777C201.662 240.799 201.368 240.01 200.782 239.411C200.195 238.811 199.451 238.511 198.552 238.511C197.652 238.511 196.909 238.811 196.322 239.411C195.748 240.01 195.461 240.799 195.461 241.777C195.461 242.755 195.748 243.544 196.322 244.144C196.909 244.744 197.652 245.044 198.552 245.044ZM212.195 237.063C213.186 237.063 214.059 237.279 214.816 237.709C215.572 238.126 216.159 238.713 216.576 239.469C217.006 240.226 217.222 241.093 217.222 242.071C217.222 243.075 216.987 243.968 216.517 244.751C216.048 245.52 215.389 246.12 214.542 246.55C213.694 246.98 212.729 247.196 211.647 247.196C209.834 247.196 208.433 246.596 207.442 245.396C206.45 244.196 205.955 242.469 205.955 240.213C205.955 238.113 206.405 236.451 207.305 235.225C208.204 233.999 209.58 233.19 211.432 232.799L216.283 231.763L216.635 233.953L212.234 234.853C210.969 235.114 210.023 235.557 209.398 236.183C208.772 236.809 208.406 237.689 208.302 238.824C208.772 238.263 209.339 237.833 210.004 237.533C210.669 237.22 211.399 237.063 212.195 237.063ZM211.706 245.22C212.605 245.22 213.329 244.933 213.877 244.359C214.438 243.773 214.718 243.029 214.718 242.13C214.718 241.23 214.438 240.506 213.877 239.958C213.329 239.411 212.605 239.137 211.706 239.137C210.793 239.137 210.056 239.411 209.495 239.958C208.935 240.506 208.654 241.23 208.654 242.13C208.654 243.042 208.935 243.786 209.495 244.359C210.069 244.933 210.806 245.22 211.706 245.22ZM219.588 236.555H222.033V240.799H227.295V236.555H229.74V247H227.295V242.873H222.033V247H219.588V236.555ZM242.797 241.836C242.797 242.006 242.784 242.247 242.758 242.56H234.562C234.705 243.329 235.077 243.942 235.677 244.398C236.29 244.842 237.046 245.064 237.946 245.064C239.093 245.064 240.039 244.685 240.782 243.929L242.093 245.435C241.623 245.996 241.03 246.42 240.313 246.707C239.596 246.993 238.787 247.137 237.887 247.137C236.74 247.137 235.729 246.909 234.855 246.452C233.982 245.996 233.304 245.363 232.821 244.555C232.352 243.733 232.117 242.808 232.117 241.777C232.117 240.76 232.345 239.847 232.802 239.039C233.271 238.217 233.917 237.579 234.738 237.122C235.56 236.666 236.485 236.437 237.516 236.437C238.533 236.437 239.439 236.666 240.235 237.122C241.043 237.565 241.669 238.198 242.112 239.019C242.569 239.828 242.797 240.767 242.797 241.836ZM237.516 238.394C236.733 238.394 236.068 238.628 235.52 239.098C234.986 239.554 234.66 240.167 234.542 240.936H240.469C240.365 240.18 240.045 239.567 239.511 239.098C238.976 238.628 238.311 238.394 237.516 238.394ZM255.251 241.836C255.251 242.006 255.238 242.247 255.212 242.56H247.016C247.16 243.329 247.531 243.942 248.131 244.398C248.744 244.842 249.501 245.064 250.4 245.064C251.548 245.064 252.493 244.685 253.237 243.929L254.547 245.435C254.078 245.996 253.484 246.42 252.767 246.707C252.05 246.993 251.241 247.137 250.342 247.137C249.194 247.137 248.183 246.909 247.31 246.452C246.436 245.996 245.758 245.363 245.276 244.555C244.806 243.733 244.571 242.808 244.571 241.777C244.571 240.76 244.8 239.847 245.256 239.039C245.725 238.217 246.371 237.579 247.192 237.122C248.014 236.666 248.94 236.437 249.97 236.437C250.987 236.437 251.893 236.666 252.689 237.122C253.497 237.565 254.123 238.198 254.567 239.019C255.023 239.828 255.251 240.767 255.251 241.836ZM249.97 238.394C249.188 238.394 248.523 238.628 247.975 239.098C247.44 239.554 247.114 240.167 246.997 240.936H252.924C252.819 240.18 252.5 239.567 251.965 239.098C251.43 238.628 250.765 238.394 249.97 238.394Z" fill="white"/>
<rect x="66.8235" y="98.3076" width="32.8231" height="5.53846" rx="2.76923" transform="rotate(-180 66.8235 98.3076)" fill="white"/>
<rect x="39.7922" y="66.923" width="31.3846" height="5.79231" rx="2.89615" transform="rotate(90 39.7922 66.923)" fill="white"/>
<rect width="32.8231" height="5.53846" rx="2.76923" transform="matrix(-1 0 0 1 66.8235 18)" fill="white"/>
<rect width="31.3846" height="5.79231" rx="2.89615" transform="matrix(0 -1 -1 0 39.7922 49.3846)" fill="white"/>
<rect x="252.177" y="18" width="32.8231" height="5.53846" rx="2.76923" fill="white"/>
<rect x="279.208" y="49.3846" width="31.3846" height="5.79231" rx="2.89615" transform="rotate(-90 279.208 49.3846)" fill="white"/>
<rect width="32.8231" height="5.53846" rx="2.76923" transform="matrix(1 0 0 -1 252.177 98.3076)" fill="white"/>
<rect width="31.3846" height="5.79231" rx="2.89615" transform="matrix(0 1 1 0 279.208 66.923)" fill="white"/>
<rect x="110" y="29.0768" width="11.0769" height="55.3846" rx="1.84615" fill="white"/>
<rect x="126.615" y="29.077" width="16.6154" height="55.3846" rx="1.84615" fill="white"/>
<rect x="148.769" y="29.077" width="3.69231" height="55.3846" rx="1.84615" fill="white"/>
<rect x="155.231" y="29.077" width="4.61538" height="55.3846" rx="1.84615" fill="white"/>
<rect x="162.615" y="29.077" width="19.3846" height="55.3846" rx="1.84615" fill="white"/>
<rect x="185.692" y="29.077" width="8.30769" height="55.3846" rx="1.84615" fill="white"/>
<rect x="198.615" y="29.077" width="4.61538" height="55.3846" rx="1.84615" fill="white"/>
<rect x="206" y="29.077" width="4.61538" height="55.3846" rx="1.84615" fill="white"/>
<rect x="6" y="211" width="309" height="4" fill="white"/>
<rect x="6" y="118" width="309" height="4" fill="white"/>
<path d="M76.6145 138.911H80.6536V154.594L92.5186 138.911H96.3369V161H92.2977V145.348L80.4328 161H76.6145V138.911ZM102.088 144.149H106.033V150.997H114.521V144.149H118.466V161H114.521V154.342H106.033V161H102.088V144.149ZM137.1 147.494H131.199V161H127.255V147.494H121.322V144.149H137.1V147.494ZM155 152.669C155 152.943 154.979 153.332 154.937 153.837H141.715C141.946 155.078 142.546 156.067 143.513 156.803C144.502 157.518 145.722 157.876 147.174 157.876C149.025 157.876 150.55 157.266 151.75 156.046L153.864 158.476C153.106 159.38 152.149 160.064 150.992 160.527C149.835 160.989 148.531 161.221 147.079 161.221C145.228 161.221 143.598 160.853 142.188 160.116C140.779 159.38 139.685 158.36 138.906 157.056C138.149 155.73 137.77 154.237 137.77 152.575C137.77 150.934 138.138 149.461 138.875 148.157C139.632 146.831 140.673 145.801 141.999 145.064C143.324 144.328 144.818 143.96 146.48 143.96C148.121 143.96 149.583 144.328 150.866 145.064C152.17 145.78 153.18 146.8 153.895 148.125C154.632 149.43 155 150.944 155 152.669ZM146.48 147.115C145.218 147.115 144.145 147.494 143.261 148.251C142.399 148.988 141.873 149.977 141.683 151.218H151.245C151.076 149.998 150.561 149.009 149.698 148.251C148.836 147.494 147.763 147.115 146.48 147.115ZM168.655 143.96C170.295 143.96 171.758 144.318 173.041 145.033C174.345 145.748 175.365 146.758 176.102 148.062C176.838 149.366 177.206 150.871 177.206 152.575C177.206 154.279 176.838 155.793 176.102 157.119C175.365 158.423 174.345 159.433 173.041 160.148C171.758 160.863 170.295 161.221 168.655 161.221C166.383 161.221 164.584 160.464 163.259 158.949V167.122H159.314V144.149H163.069V146.358C163.721 145.559 164.521 144.959 165.467 144.559C166.435 144.16 167.498 143.96 168.655 143.96ZM168.213 157.844C169.664 157.844 170.853 157.361 171.779 156.393C172.725 155.425 173.199 154.152 173.199 152.575C173.199 150.997 172.725 149.724 171.779 148.756C170.853 147.789 169.664 147.305 168.213 147.305C167.266 147.305 166.414 147.526 165.657 147.967C164.899 148.388 164.3 148.998 163.858 149.798C163.416 150.597 163.195 151.523 163.195 152.575C163.195 153.626 163.416 154.552 163.858 155.352C164.3 156.151 164.899 156.772 165.657 157.213C166.414 157.634 167.266 157.844 168.213 157.844ZM181.132 144.149H185.076V150.997H193.565V144.149H197.509V161H193.565V154.342H185.076V161H181.132V144.149ZM218.574 152.669C218.574 152.943 218.553 153.332 218.51 153.837H205.289C205.52 155.078 206.12 156.067 207.087 156.803C208.076 157.518 209.296 157.876 210.748 157.876C212.599 157.876 214.124 157.266 215.323 156.046L217.438 158.476C216.68 159.38 215.723 160.064 214.566 160.527C213.409 160.989 212.105 161.221 210.653 161.221C208.802 161.221 207.171 160.853 205.762 160.116C204.352 159.38 203.259 158.36 202.48 157.056C201.723 155.73 201.344 154.237 201.344 152.575C201.344 150.934 201.712 149.461 202.449 148.157C203.206 146.831 204.247 145.801 205.573 145.064C206.898 144.328 208.392 143.96 210.054 143.96C211.694 143.96 213.157 144.328 214.44 145.064C215.744 145.78 216.754 146.8 217.469 148.125C218.205 149.43 218.574 150.944 218.574 152.669ZM210.054 147.115C208.791 147.115 207.718 147.494 206.835 148.251C205.972 148.988 205.446 149.977 205.257 151.218H214.818C214.65 149.998 214.135 149.009 213.272 148.251C212.41 147.494 211.337 147.115 210.054 147.115ZM235.62 147.494H229.719V161H225.774V147.494H219.842V144.149H235.62V147.494ZM237.103 150.587H245.781V153.868H237.103V150.587ZM96.6062 199V187.829L90.9262 197.233H89.2222L83.6368 187.798V199H80.0394V182.149H84.1732L90.1688 192.689L96.4484 182.149H100.14L100.172 199H96.6062ZM111.742 181.96C114.225 181.96 116.118 182.559 117.422 183.759C118.748 184.937 119.41 186.725 119.41 189.123V199H115.687V196.949C115.203 197.685 114.509 198.253 113.604 198.653C112.721 199.032 111.648 199.221 110.385 199.221C109.123 199.221 108.019 199.011 107.072 198.59C106.125 198.148 105.389 197.548 104.863 196.791C104.358 196.013 104.106 195.14 104.106 194.172C104.106 192.657 104.663 191.448 105.778 190.543C106.914 189.617 108.692 189.155 111.111 189.155H115.466V188.902C115.466 187.724 115.108 186.819 114.393 186.188C113.699 185.557 112.657 185.242 111.269 185.242C110.322 185.242 109.386 185.389 108.461 185.683C107.556 185.978 106.788 186.388 106.157 186.914L104.611 184.043C105.494 183.369 106.557 182.854 107.798 182.496C109.039 182.139 110.354 181.96 111.742 181.96ZM111.206 196.349C112.195 196.349 113.068 196.128 113.825 195.687C114.603 195.224 115.15 194.572 115.466 193.73V191.774H111.395C109.123 191.774 107.987 192.521 107.987 194.014C107.987 194.729 108.271 195.297 108.839 195.718C109.407 196.139 110.196 196.349 111.206 196.349ZM137.229 185.494H128.236V199H124.291V182.149H137.229V185.494ZM146.38 181.96C148.862 181.96 150.756 182.559 152.06 183.759C153.385 184.937 154.048 186.725 154.048 189.123V199H150.324V196.949C149.84 197.685 149.146 198.253 148.242 198.653C147.358 199.032 146.285 199.221 145.023 199.221C143.761 199.221 142.656 199.011 141.71 198.59C140.763 198.148 140.027 197.548 139.501 196.791C138.996 196.013 138.743 195.14 138.743 194.172C138.743 192.657 139.301 191.448 140.416 190.543C141.552 189.617 143.329 189.155 145.749 189.155H150.103V188.902C150.103 187.724 149.746 186.819 149.03 186.188C148.336 185.557 147.295 185.242 145.906 185.242C144.96 185.242 144.024 185.389 143.098 185.683C142.193 185.978 141.426 186.388 140.794 186.914L139.248 184.043C140.132 183.369 141.194 182.854 142.435 182.496C143.676 182.139 144.991 181.96 146.38 181.96ZM145.843 196.349C146.832 196.349 147.705 196.128 148.462 195.687C149.241 195.224 149.788 194.572 150.103 193.73V191.774H146.033C143.761 191.774 142.625 192.521 142.625 194.014C142.625 194.729 142.909 195.297 143.477 195.718C144.045 196.139 144.834 196.349 145.843 196.349ZM168.779 190.227C169.831 190.522 170.641 191.006 171.209 191.679C171.798 192.331 172.093 193.12 172.093 194.046C172.093 195.077 171.746 195.992 171.051 196.791C170.357 197.569 169.4 198.18 168.18 198.621C166.96 199.063 165.571 199.284 164.015 199.284C162.71 199.284 161.437 199.137 160.196 198.842C158.955 198.527 157.83 198.085 156.82 197.517L157.956 194.582C158.776 195.045 159.702 195.403 160.733 195.655C161.764 195.908 162.794 196.034 163.825 196.034C165.151 196.034 166.181 195.834 166.918 195.434C167.675 195.013 168.054 194.445 168.054 193.73C168.054 193.078 167.759 192.573 167.17 192.216C166.602 191.858 165.792 191.679 164.74 191.679H161.459V189.028H164.425C165.413 189.028 166.181 188.86 166.728 188.523C167.296 188.187 167.58 187.714 167.58 187.103C167.58 186.493 167.244 186.01 166.571 185.652C165.897 185.294 164.972 185.115 163.794 185.115C162.111 185.115 160.333 185.526 158.461 186.346L157.451 183.443C159.66 182.412 161.89 181.897 164.141 181.897C165.571 181.897 166.855 182.097 167.991 182.496C169.127 182.875 170.01 183.422 170.641 184.137C171.293 184.831 171.619 185.631 171.619 186.535C171.619 187.356 171.367 188.092 170.862 188.744C170.357 189.375 169.663 189.87 168.779 190.227ZM176.186 182.149H180.13V193.257L189.439 182.149H193.037V199H189.092V187.892L179.815 199H176.186V182.149ZM198.343 182.149H202.287V188.997H210.776V182.149H214.72V199H210.776V192.342H202.287V199H198.343V182.149ZM228.211 187.703C230.357 187.703 231.998 188.187 233.134 189.155C234.27 190.122 234.838 191.49 234.838 193.257C234.838 195.108 234.207 196.539 232.944 197.548C231.703 198.558 229.936 199.053 227.643 199.032L220.007 199V182.149H223.951V187.671L228.211 187.703ZM237.015 182.149H240.96V199H237.015V182.149ZM227.296 196.128C228.453 196.149 229.337 195.908 229.947 195.403C230.557 194.898 230.862 194.161 230.862 193.194C230.862 192.247 230.567 191.553 229.978 191.111C229.389 190.669 228.495 190.438 227.296 190.417L223.951 190.385V196.097L227.296 196.128Z" fill="white"/>
<defs>
<filter id="filter0_d" x="0" y="211" width="323" height="62" filterUnits="userSpaceOnUse" color-interpolation-filters="sRGB">
<feFlood flood-opacity="0" result="BackgroundImageFix"/>
<feColorMatrix in="SourceAlpha" type="matrix" values="0 0 0 0 0 0 0 0 0 0 0 0 0 0 0 0 0 0 127 0"/>
<feOffset dx="1" dy="3"/>
<feGaussianBlur stdDeviation="3.5"/>
<feColorMatrix type="matrix" values="0 0 0 0 0 0 0 0 0 0 0 0 0 0 0 0 0 0 0.15 0"/>
<feBlend mode="normal" in2="BackgroundImageFix" result="effect1_dropShadow"/>
<feBlend mode="normal" in="SourceGraphic" in2="effect1_dropShadow" result="shape"/>
</filter>
<radialGradient id="paint0_radial" cx="0" cy="0" r="1" gradientUnits="userSpaceOnUse" gradientTransform="translate(73.2823 41.2942) rotate(43.7526) scale(391.902 284.881)">
<stop/>
<stop offset="1" stop-color="#322828" stop-opacity="0"/>
</radialGradient>
<radialGradient id="paint1_radial" cx="0" cy="0" r="1" gradientUnits="userSpaceOnUse" gradientTransform="translate(73.2823 41.2942) rotate(43.7526) scale(391.902 284.881)">
<stop/>
<stop offset="1" stop-color="#322828" stop-opacity="0"/>
</radialGradient>
</defs>
</svg>
